<svg width="22" height="23" viewBox="0 0 22 23" fill="none" xmlns="http://www.w3.org/2000/svg">
<path d="M3.66406 15.9572V18.0591C3.66406 18.1807 3.71235 18.2972 3.79831 18.3832C3.88426 18.4692 4.00084 18.5174 4.1224 18.5174H6.2289C6.35022 18.5174 6.46658 18.4693 6.55248 18.3836L15.2131 9.72294L12.4631 6.97294L3.79881 15.6336C3.7128 15.7194 3.66433 15.8357 3.66406 15.9572ZM13.598 5.83719L16.348 8.58719L17.6863 7.24886C17.8582 7.07696 17.9547 6.84384 17.9547 6.60077C17.9547 6.35771 17.8582 6.12459 17.6863 5.95269L16.2334 4.49886C16.0615 4.32701 15.8284 4.23047 15.5853 4.23047C15.3422 4.23047 15.1091 4.32701 14.9372 4.49886L13.598 5.83719Z" fill="white"/>
</svg>
