<svg width="30" height="30" viewBox="0 0 30 30" fill="none" xmlns="http://www.w3.org/2000/svg">
<circle cx="14.8591" cy="14.8591" r="14.8591" fill="white"/>
<path opacity="0.982" fill-rule="evenodd" clip-rule="evenodd" d="M10.9773 8.14062C11.0753 8.14062 11.1733 8.14062 11.2713 8.14062C11.3978 8.20047 11.4825 8.29846 11.5252 8.4346C11.5341 9.07599 11.543 9.71738 11.5519 10.3588C11.6703 10.6238 11.8618 10.6996 12.1265 10.5859C12.1855 10.5359 12.2345 10.478 12.2735 10.4122C12.3125 9.94194 12.3258 9.4698 12.3136 8.99581C12.6343 8.99581 12.955 8.99581 13.2757 8.99581C13.2712 8.81743 13.2757 8.63926 13.289 8.46132C13.3209 8.30951 13.4056 8.20261 13.5429 8.14062C13.6409 8.14062 13.7389 8.14062 13.8369 8.14062C13.9514 8.19733 14.036 8.28641 14.0908 8.40787C14.0997 9.04036 14.1086 9.67284 14.1175 10.3053C14.2271 10.6358 14.4364 10.7205 14.7455 10.5592C14.7799 10.5215 14.8111 10.4815 14.8391 10.4389C14.8781 9.95974 14.8914 9.4787 14.8792 8.99581C15.2087 8.99581 15.5384 8.99581 15.868 8.99581C15.8635 8.79963 15.868 8.60365 15.8813 8.40787C15.9361 8.28641 16.0207 8.19733 16.1352 8.14062C16.2332 8.14062 16.3312 8.14062 16.4292 8.14062C16.5665 8.20261 16.6512 8.30951 16.6831 8.46132C16.692 9.09381 16.7009 9.72629 16.7098 10.3588C16.7846 10.5633 16.9316 10.6568 17.1507 10.6394C17.276 10.6033 17.3695 10.5276 17.4314 10.4122C17.47 9.94158 17.4833 9.46944 17.4714 8.99581C17.7921 8.99581 18.1128 8.99581 18.4335 8.99581C18.4291 8.80853 18.4335 8.62146 18.4469 8.4346C18.4896 8.29846 18.5743 8.20047 18.7008 8.14062C18.7988 8.14062 18.8968 8.14062 18.9948 8.14062C19.1213 8.20047 19.2059 8.29846 19.2486 8.4346C19.2575 9.06708 19.2665 9.69956 19.2754 10.332C19.4195 10.6637 19.6377 10.7261 19.9301 10.5191C19.968 10.4701 19.9992 10.4166 20.0237 10.3588C20.037 9.90454 20.0415 9.45022 20.037 8.99581C20.9684 8.91281 21.5653 9.31368 21.8276 10.1984C21.8276 10.6617 21.8276 11.1249 21.8276 11.5881C17.2665 11.5881 12.7056 11.5881 8.14453 11.5881C8.14453 11.1249 8.14453 10.6617 8.14453 10.1984C8.29995 9.55752 8.70082 9.1611 9.34714 9.00918C9.80137 8.99582 10.2557 8.99136 10.7101 8.99581C10.7057 8.80853 10.7101 8.62146 10.7235 8.4346C10.7662 8.29846 10.8508 8.20047 10.9773 8.14062Z" fill="#FAC1D9"/>
<path opacity="0.989" fill-rule="evenodd" clip-rule="evenodd" d="M8.14453 12.3633C12.7056 12.3633 17.2665 12.3633 21.8276 12.3633C21.8276 15.1159 21.8276 17.8686 21.8276 20.6212C21.6672 21.2626 21.2663 21.6635 20.625 21.8238C16.8657 21.8238 13.1064 21.8238 9.34714 21.8238C8.71768 21.6665 8.31681 21.2745 8.14453 20.6479C8.14453 17.8864 8.14453 15.1248 8.14453 12.3633ZM10.4429 13.7262C11.0398 13.7218 11.6366 13.7262 12.2334 13.7396C12.3929 13.7743 12.5043 13.8678 12.5675 14.0202C12.5853 14.6616 12.5853 15.303 12.5675 15.9444C12.5043 16.0968 12.3929 16.1903 12.2334 16.225C11.6366 16.2428 11.0397 16.2428 10.4429 16.225C10.2765 16.1974 10.1651 16.1039 10.1088 15.9444C10.091 15.303 10.091 14.6616 10.1088 14.0202C10.1704 13.8629 10.2818 13.7649 10.4429 13.7262ZM17.7387 13.7262C18.3356 13.7218 18.9325 13.7262 19.5292 13.7396C19.6966 13.7675 19.808 13.861 19.8633 14.0202C19.8811 14.6616 19.8811 15.303 19.8633 15.9444C19.808 16.1036 19.6966 16.1971 19.5292 16.225C18.9324 16.2428 18.3355 16.2428 17.7387 16.225C17.5792 16.1903 17.4678 16.0968 17.4046 15.9444C17.3868 15.303 17.3868 14.6616 17.4046 14.0202C17.4724 13.8675 17.5838 13.7695 17.7387 13.7262ZM15.7878 13.9935C16.1535 13.9792 16.3094 14.1485 16.2555 14.5013C16.2376 14.5369 16.2198 14.5725 16.202 14.6082C15.77 15.0402 15.3379 15.4722 14.9059 15.9043C14.7772 15.9816 14.6436 15.9905 14.505 15.931C14.2519 15.7047 14.0069 15.4686 13.7701 15.2228C13.6304 14.9665 13.6883 14.766 13.9438 14.6215C14.0329 14.6037 14.122 14.6037 14.211 14.6215C14.3832 14.7446 14.5435 14.8827 14.6921 15.0357C15.0505 14.6773 15.4157 14.3298 15.7878 13.9935ZM10.3894 17.1737C11.022 17.1693 11.6544 17.1737 12.2869 17.1871C12.4338 17.2272 12.5274 17.3207 12.5675 17.4677C12.5853 18.1002 12.5853 18.7327 12.5675 19.3651C12.5274 19.5121 12.4338 19.6057 12.2869 19.6458C11.6455 19.6636 11.0041 19.6636 10.3627 19.6458C10.2424 19.5968 10.1578 19.5121 10.1088 19.3919C10.091 18.7416 10.091 18.0913 10.1088 17.441C10.1651 17.3089 10.2586 17.2198 10.3894 17.1737ZM14.024 17.1737C14.6654 17.1693 15.3068 17.1737 15.9481 17.1871C16.1005 17.2503 16.1941 17.3616 16.2287 17.5211C16.2466 18.118 16.2466 18.7149 16.2287 19.3117C16.2012 19.4781 16.1076 19.5894 15.9481 19.6458C15.3067 19.6636 14.6654 19.6636 14.024 19.6458C13.8645 19.5894 13.7709 19.4781 13.7434 19.3117C13.7255 18.7149 13.7255 18.118 13.7434 17.5211C13.7833 17.361 13.8769 17.2452 14.024 17.1737ZM17.6852 17.1737C18.3178 17.1693 18.9503 17.1737 19.5827 17.1871C19.7183 17.2247 19.8118 17.3093 19.8633 17.441C19.8811 18.0913 19.8811 18.7416 19.8633 19.3919C19.8118 19.5236 19.7183 19.6082 19.5827 19.6458C18.9502 19.6636 18.3177 19.6636 17.6852 19.6458C17.5383 19.6057 17.4447 19.5121 17.4046 19.3651C17.3868 18.7327 17.3868 18.1002 17.4046 17.4677C17.4496 17.3203 17.5432 17.2223 17.6852 17.1737Z" fill="#FAC1D9"/>
<path opacity="0.932" fill-rule="evenodd" clip-rule="evenodd" d="M10.8711 14.5C11.1829 14.5 11.4947 14.5 11.8065 14.5C11.8065 14.8207 11.8065 15.1414 11.8065 15.4621C11.4947 15.4621 11.1829 15.4621 10.8711 15.4621C10.8711 15.1414 10.8711 14.8207 10.8711 14.5Z" fill="#FAC1D9"/>
<path opacity="0.932" fill-rule="evenodd" clip-rule="evenodd" d="M18.168 14.5C18.4798 14.5 18.7915 14.5 19.1033 14.5C19.1033 14.8207 19.1033 15.1414 19.1033 15.4621C18.7915 15.4621 18.4798 15.4621 18.168 15.4621C18.168 15.1414 18.168 14.8207 18.168 14.5Z" fill="#FAC1D9"/>
<path opacity="0.959" fill-rule="evenodd" clip-rule="evenodd" d="M10.8711 17.9492C11.1829 17.9492 11.4947 17.9492 11.8065 17.9492C11.8065 18.261 11.8065 18.5728 11.8065 18.8846C11.4947 18.8846 11.1829 18.8846 10.8711 18.8846C10.8711 18.5728 10.8711 18.261 10.8711 17.9492Z" fill="#FAC1D9"/>
<path opacity="0.932" fill-rule="evenodd" clip-rule="evenodd" d="M14.5039 17.9492C14.8246 17.9492 15.1453 17.9492 15.466 17.9492C15.466 18.261 15.466 18.5728 15.466 18.8846C15.1453 18.8846 14.8246 18.8846 14.5039 18.8846C14.5039 18.5728 14.5039 18.261 14.5039 17.9492Z" fill="#FAC1D9"/>
<path opacity="0.959" fill-rule="evenodd" clip-rule="evenodd" d="M18.168 17.9492C18.4798 17.9492 18.7915 17.9492 19.1033 17.9492C19.1033 18.261 19.1033 18.5728 19.1033 18.8846C18.7915 18.8846 18.4798 18.8846 18.168 18.8846C18.168 18.5728 18.168 18.261 18.168 17.9492Z" fill="#FAC1D9"/>
</svg>
