<svg width="40" height="41" viewBox="0 0 40 41" fill="none" xmlns="http://www.w3.org/2000/svg">
<path opacity="0.969" fill-rule="evenodd" clip-rule="evenodd" d="M19.4487 2.61137C21.9361 2.46295 24.2837 2.96425 26.4915 4.1153C26.9616 4.35907 27.1206 4.73811 26.9683 5.25242C26.8724 5.5649 26.7623 5.87058 26.6382 6.16945C26.0622 6.16851 25.4753 6.19297 24.8775 6.24281C24.4533 6.25072 24.2699 6.45858 24.3273 6.86639C24.3884 7.02534 24.4984 7.13539 24.6574 7.19652C25.1699 7.14716 25.6835 7.15939 26.198 7.2332C25.949 7.80461 25.6434 8.3426 25.281 8.84718C24.7036 8.47789 24.08 8.27002 23.4103 8.2236C23.1168 8.4926 23.1168 8.76156 23.4103 9.03058C23.8793 9.17951 24.3195 9.38742 24.7308 9.65417C23.038 11.6238 21.0328 12.0273 18.7151 10.8646C18.7395 10.7913 18.764 10.7179 18.7884 10.6446C18.5454 8.60468 18.3132 6.56276 18.0915 4.51879C17.9967 3.96247 17.7644 3.47338 17.3945 3.05154C18.0779 2.85654 18.7626 2.70982 19.4487 2.61137ZM20.8426 4.15198C21.3035 4.16096 21.6091 4.38105 21.7596 4.81224C21.7461 5.4614 21.416 5.74263 20.7692 5.65591C20.2706 5.40488 20.1362 5.02584 20.3657 4.51879C20.5099 4.36838 20.6688 4.2461 20.8426 4.15198Z" fill="#FAC1D9"/>
<path opacity="0.968" fill-rule="evenodd" clip-rule="evenodd" d="M14.4562 3.27057C15.0226 3.25138 15.5851 3.28806 16.1436 3.38061C16.6845 3.57896 17.0146 3.958 17.134 4.51773C17.3556 6.5611 17.5879 8.60302 17.8309 10.6435C17.645 11.6967 17.0092 12.2469 15.9235 12.2942C15.9519 11.8781 15.8663 11.4869 15.6667 11.1204C14.2267 9.03466 12.7961 6.94382 11.375 4.84786C12.2306 3.99208 13.2577 3.46631 14.4562 3.27057Z" fill="#FAC1D9"/>
<path opacity="0.979" fill-rule="evenodd" clip-rule="evenodd" d="M8.44385 4.58788C9.31334 4.47406 10.0347 4.74305 10.608 5.39487C12.069 7.50969 13.5118 9.6372 14.9364 11.7774C15.0341 12.2752 14.9607 12.7398 14.7163 13.1713C14.0661 13.846 13.3936 14.4941 12.6989 15.1154C12.1995 15.2775 11.7105 15.2531 11.2316 15.042C9.17747 13.6237 7.12332 12.2053 5.06917 10.787C4.39348 10.1783 4.16117 9.43252 4.37223 8.54946C5.07003 6.54327 6.42724 5.22274 8.44385 4.58788Z" fill="#FAC1D9"/>
<path opacity="0.905" fill-rule="evenodd" clip-rule="evenodd" d="M27.5895 6.27734C29.7378 6.85077 31.4497 8.0368 32.7248 9.83542C32.5854 10.3575 32.2674 10.5042 31.7711 10.2756C30.5382 8.83432 29.022 7.81948 27.2227 7.23106C27.3598 6.91716 27.4821 6.59926 27.5895 6.27734Z" fill="#FAC1D9"/>
<path opacity="0.899" fill-rule="evenodd" clip-rule="evenodd" d="M26.0517 9.35938C27.5841 10.4914 28.6234 11.983 29.1697 13.8345C29.2172 14.2276 29.046 14.4721 28.6561 14.5681C28.4443 14.5385 28.2731 14.4408 28.1426 14.2747C27.6532 12.6596 26.7606 11.3146 25.4648 10.2397C25.6931 9.96359 25.8887 9.67014 26.0517 9.35938Z" fill="#FAC1D9"/>
<path opacity="0.967" fill-rule="evenodd" clip-rule="evenodd" d="M4.55424 11.6328C6.66031 12.9921 8.73891 14.3982 10.79 15.8512C11.2186 16.1111 11.6832 16.2211 12.1839 16.1813C12.0921 17.1778 11.554 17.7403 10.57 17.8686C8.68697 17.6608 6.804 17.4529 4.92105 17.245C4.16368 17.2681 3.63792 16.9379 3.34376 16.2547C3.00266 14.5131 3.40615 12.9725 4.55424 11.6328Z" fill="#FAC1D9"/>
<path opacity="0.955" fill-rule="evenodd" clip-rule="evenodd" d="M21.1368 14.3455C23.3487 14.1434 25.4273 14.5714 27.3726 15.6293C27.7193 15.8267 28.0373 16.059 28.3263 16.3263C27.9353 16.5585 27.6296 16.8764 27.4093 17.28C26.5714 18.7844 25.7522 20.3006 24.9517 21.8285C23.9879 21.9665 23.1076 21.7587 22.3106 21.2049C22.5185 20.9971 22.7264 20.7891 22.9342 20.5813C23.0198 20.08 22.8119 19.8721 22.3106 19.9577C22.0564 20.1384 21.8242 20.3463 21.6137 20.5813C21.3273 20.2041 21.1194 19.7883 20.9901 19.3341C21.4344 19.2629 21.8623 19.1406 22.2739 18.9673C22.4843 18.5598 22.3742 18.2909 21.9438 18.1603C21.5463 18.2353 21.155 18.3331 20.77 18.4538C20.5957 18.008 20.5223 17.5434 20.5499 17.0599C20.9433 17.1063 21.3224 17.2041 21.687 17.3534C22.1908 17.1601 22.2764 16.8545 21.9438 16.4363C21.4692 16.2565 20.9802 16.1465 20.4766 16.1062C20.4938 15.6404 20.5305 15.1757 20.5866 14.7123C20.7269 14.5084 20.9104 14.3861 21.1368 14.3455ZM24.2914 15.7394C25.1429 15.7951 25.3996 16.2107 25.0617 16.9865C24.8168 17.1933 24.5356 17.2544 24.2181 17.17C23.8127 16.9558 23.6782 16.6257 23.8146 16.1796C23.9242 15.9731 24.0831 15.8264 24.2914 15.7394Z" fill="#FAC1D9"/>
<path opacity="0.912" fill-rule="evenodd" clip-rule="evenodd" d="M19.0074 15.8867C19.1786 15.8867 19.3498 15.8867 19.521 15.8867C19.521 16.2535 19.521 16.6203 19.521 16.9872C18.3849 17.0438 17.3334 17.3739 16.3664 17.9776C16.024 18.1976 15.6817 18.4177 15.3393 18.6378C14.8135 18.6989 14.5812 18.4667 14.6424 17.9409C14.6999 17.8098 14.7855 17.6998 14.8991 17.6107C16.1282 16.6902 17.4977 16.1155 19.0074 15.8867Z" fill="#FAC1D9"/>
<path opacity="0.958" fill-rule="evenodd" clip-rule="evenodd" d="M29.1308 17.0625C30.7072 17.3063 31.832 18.15 32.5055 19.5935C30.7646 20.7717 29.0039 21.9211 27.2234 23.0415C26.9716 23.2647 26.7637 23.5215 26.5998 23.8118C25.9072 23.4055 25.6627 22.8186 25.8662 22.0511C26.6976 20.535 27.5291 19.0189 28.3605 17.5027C28.5857 17.2865 28.8424 17.1398 29.1308 17.0625Z" fill="#FAC1D9"/>
<path opacity="0.961" fill-rule="evenodd" clip-rule="evenodd" d="M4.33323 18.1641C6.41298 18.3679 8.49159 18.588 10.569 18.8243C10.8443 18.8105 11.1133 18.7616 11.376 18.6776C11.4451 18.6855 11.5062 18.71 11.5594 18.751C11.8259 19.673 11.5202 20.2966 10.6424 20.6217C9.14742 21.026 7.65574 21.4418 6.16729 21.8689C5.67575 21.9854 5.2478 21.8754 4.88345 21.5387C4.23156 20.4886 4.04815 19.3637 4.33323 18.1641Z" fill="#FAC1D9"/>
<path opacity="0.903" fill-rule="evenodd" clip-rule="evenodd" d="M19.6685 18.7501C19.7416 18.7479 19.7905 18.7846 19.8152 18.8601C19.9205 19.1639 20.0183 19.4696 20.1086 19.7772C18.9415 20.4674 18.0367 21.4089 17.3942 22.6016C16.758 22.7968 16.4768 22.5645 16.5505 21.9047C17.2968 20.555 18.336 19.5034 19.6685 18.7501Z" fill="#FAC1D9"/>
<path opacity="0.976" fill-rule="evenodd" clip-rule="evenodd" d="M33.3868 20.2153C33.9064 20.1524 34.3955 20.238 34.8541 20.4721C36.2581 21.6511 36.8572 23.1551 36.6514 24.9838C36.468 25.5585 36.089 25.9376 35.5143 26.121C33.4143 26.5874 31.3113 27.0398 29.2052 27.4782C28.9028 27.4456 28.6338 27.3356 28.3982 27.148C27.9702 26.3538 27.6279 25.5224 27.3711 24.6537C27.4175 24.4067 27.5031 24.1744 27.6279 23.9568C29.5223 22.6597 31.442 21.4125 33.3868 20.2153Z" fill="#FAC1D9"/>
<path opacity="0.905" fill-rule="evenodd" clip-rule="evenodd" d="M20.9869 21.3906C21.0913 21.406 21.189 21.4426 21.2804 21.5007C21.4957 21.7034 21.6914 21.9112 21.8673 22.1242C21.6042 22.8982 21.5798 23.6807 21.7939 24.4718C21.7454 24.8139 21.5497 25.0095 21.207 25.0587C20.7578 24.9117 20.5499 24.5938 20.5834 24.105C20.439 23.1532 20.5735 22.2484 20.9869 21.3906Z" fill="#FAC1D9"/>
<path opacity="0.957" fill-rule="evenodd" clip-rule="evenodd" d="M10.7172 21.5355C10.9599 21.4969 11.1188 21.5947 11.194 21.829C11.5177 22.5008 11.86 23.161 12.2211 23.8098C12.4962 24.6906 12.1905 25.2409 11.3041 25.4604C9.91248 25.6977 8.75093 25.2942 7.81937 24.2499C7.45429 23.7866 7.14861 23.2852 6.90234 22.746C6.98905 22.6187 7.11132 22.5454 7.26916 22.5259C8.43321 22.2149 9.58257 21.8848 10.7172 21.5355Z" fill="#FAC1D9"/>
<path opacity="0.958" fill-rule="evenodd" clip-rule="evenodd" d="M12.99 23.1494C13.857 23.0827 14.6885 23.2173 15.4844 23.5529C15.702 23.7069 15.8365 23.9148 15.8879 24.1764C15.8869 24.5705 15.8624 24.9619 15.8145 25.3502C15.8419 25.4174 15.8786 25.4786 15.9245 25.5336C16.8166 25.9596 17.0733 26.6321 16.6948 27.5511C16.4362 27.9669 16.0572 28.1869 15.5577 28.2114C15.2681 28.1214 14.9746 28.0847 14.6774 28.1013C14.4581 28.3674 14.238 28.6364 14.0171 28.9083C13.5898 29.1228 13.1496 29.1472 12.6966 28.9817C11.6139 28.4003 10.758 27.5811 10.1289 26.524C10.7399 26.5116 11.3512 26.4259 11.963 26.2673C13.2474 25.5447 13.5898 24.5055 12.99 23.1494Z" fill="#FAC1D9"/>
<path opacity="0.96" fill-rule="evenodd" clip-rule="evenodd" d="M35.2943 27.1118C35.4027 27.0926 35.5005 27.117 35.5877 27.1852C35.9726 28.4409 35.8382 29.6392 35.1842 30.7799C34.6752 31.3316 34.076 31.4416 33.3868 31.1101C31.9728 30.6795 30.5545 30.2638 29.1318 29.8629C28.3823 29.5078 28.1866 28.982 28.5449 28.2856C28.7762 28.3392 29.0085 28.3881 29.2419 28.4323C31.276 28.0233 33.2934 27.5831 35.2943 27.1118Z" fill="#FAC1D9"/>
<path opacity="0.944" fill-rule="evenodd" clip-rule="evenodd" d="M28.0316 30.3398C28.4069 30.6001 28.8227 30.7835 29.2788 30.8901C30.7718 31.2942 32.2391 31.7466 33.6805 32.2473C33.4814 33.0734 33.0657 33.7703 32.4333 34.3381C32.0176 34.5826 31.6019 34.5826 31.1862 34.3381C30.0912 33.4788 29.0031 32.6107 27.9216 31.7337C27.6712 31.2478 27.7079 30.7832 28.0316 30.3398Z" fill="#FAC1D9"/>
<path opacity="0.942" fill-rule="evenodd" clip-rule="evenodd" d="M27.5168 32.6875C28.4437 33.3476 29.3485 34.0446 30.2313 34.7783C28.9932 36.0567 27.5993 36.2768 26.0496 35.4386C25.6106 35.0768 25.5251 34.6488 25.7928 34.1547C26.3816 33.6756 26.9562 33.1865 27.5168 32.6875Z" fill="#FAC1D9"/>
<path opacity="0.948" fill-rule="evenodd" clip-rule="evenodd" d="M23.556 32.7617C24.1565 32.8109 24.7312 32.9577 25.28 33.2019C24.2404 34.8266 24.6439 35.9882 26.4905 36.6866C25.5875 37.4034 24.5604 37.7212 23.4092 37.6403C23.1831 37.5827 23.0242 37.4482 22.9324 37.2368C22.8667 36.9647 22.7934 36.6956 22.7123 36.4298C22.3503 36.3227 21.9957 36.1883 21.6485 36.0263C21.304 35.5766 21.2674 35.0997 21.5385 34.5958C21.8357 34.3116 22.1903 34.1527 22.6023 34.1189C22.6634 34.0578 22.7246 33.9966 22.7857 33.9355C22.7739 33.3431 23.0307 32.9518 23.556 32.7617Z" fill="#FAC1D9"/>
</svg>
