<svg width="40" height="41" viewBox="0 0 40 41" fill="none" xmlns="http://www.w3.org/2000/svg">
<path opacity="0.985" fill-rule="evenodd" clip-rule="evenodd" d="M37.9776 15.5025C37.9776 16.1593 37.9776 16.8162 37.9776 17.473C37.8556 17.7466 37.6445 17.9225 37.3443 18.0008C25.7557 18.0478 14.1672 18.0478 2.57869 18.0008C2.2663 17.9339 2.05518 17.758 1.94531 17.473C1.94531 16.8162 1.94531 16.1593 1.94531 15.5025C2.36906 13.283 3.4247 11.418 5.11222 9.90762C7.44971 7.91771 10.1239 6.55711 13.135 5.82583C18.9061 4.40707 24.5595 4.78241 30.0956 6.95184C32.5295 7.95583 34.5822 9.4689 36.2534 11.4911C37.14 12.7005 37.7148 14.0377 37.9776 15.5025ZM19.68 7.97229C19.9646 7.93414 20.2226 7.99278 20.4541 8.14823C20.935 8.62913 21.4159 9.11003 21.8968 9.59093C22.2319 10.1873 22.0677 10.5626 21.4042 10.7169C21.2657 10.714 21.1367 10.6788 21.0171 10.6114C20.4893 10.0836 19.9615 9.55574 19.4337 9.02792C19.2031 8.60499 19.2852 8.25312 19.68 7.97229ZM15.4574 9.3798C16.1579 9.42118 16.4042 9.77306 16.1964 10.4354C15.6686 10.9633 15.1407 11.4911 14.6129 12.0189C14.0603 12.2824 13.685 12.1183 13.4869 11.5263C13.5381 11.4278 13.5733 11.3222 13.5925 11.2096C14.1601 10.5364 14.7817 9.92641 15.4574 9.3798ZM30.0252 10.7873C30.1668 10.8385 30.3075 10.8972 30.4474 10.9633C30.9753 11.4911 31.5031 12.0189 32.0309 12.5467C32.2618 13.278 31.992 13.6181 31.2216 13.5672C30.5764 13.0159 29.9783 12.4177 29.427 11.7726C29.3233 11.2519 29.5227 10.9234 30.0252 10.7873ZM8.20874 12.2652C8.50565 12.2285 8.76369 12.3107 8.98288 12.5115C9.44032 12.969 9.89776 13.4264 10.3552 13.8838C10.7097 14.495 10.5455 14.8937 9.86257 15.0802C9.07626 14.5994 8.39597 13.9895 7.82168 13.2505C7.69979 12.8151 7.82881 12.4867 8.20874 12.2652ZM25.5212 12.2652C26.202 12.2761 26.4717 12.6046 26.3305 13.2505C25.8518 13.7996 25.3474 14.3274 24.8174 14.8339C24.3726 15.1787 23.9856 15.1201 23.6562 14.658C23.6006 14.4374 23.624 14.2263 23.7266 14.0246C24.2707 13.3748 24.8689 12.7884 25.5212 12.2652Z" fill="#FAC1D9"/>
<path opacity="0.955" fill-rule="evenodd" clip-rule="evenodd" d="M3.98486 19.3716C14.6351 19.3598 25.2852 19.3716 35.9354 19.4068C36.5511 19.6416 36.7036 20.0522 36.3928 20.6384C36.2662 20.7662 36.1137 20.8484 35.9354 20.8847C33.5896 20.9081 31.2437 20.9316 28.8978 20.955C27.5373 22.3156 26.1766 23.6763 24.816 25.0368C24.501 25.2393 24.1726 25.2627 23.8308 25.1072C21.0627 23.7231 18.2946 22.3391 15.5265 20.955C11.6792 20.9316 7.83207 20.9081 3.98486 20.8847C3.36918 20.6498 3.2167 20.2393 3.52742 19.6531C3.66908 19.5301 3.82156 19.4362 3.98486 19.3716Z" fill="#FAC1D9"/>
<path opacity="0.98" fill-rule="evenodd" clip-rule="evenodd" d="M37.9776 24.5788C37.9776 25.0011 37.9776 25.4233 37.9776 25.8456C37.6253 27.0538 36.8277 27.7927 35.5849 28.0624C25.1693 28.1094 14.7537 28.1094 4.33808 28.0624C3.09522 27.7927 2.29763 27.0538 1.94531 25.8456C1.94531 25.4233 1.94531 25.0011 1.94531 24.5788C2.28967 23.4019 3.0638 22.663 4.26771 22.362C7.36223 22.2474 10.4587 22.2239 13.5573 22.2916C17.0291 24.0276 20.501 25.7635 23.9729 27.4994C24.4633 27.6662 24.9325 27.6193 25.3804 27.3587C27.0694 25.6697 28.7584 23.9806 30.4474 22.2916C32.0191 22.2447 33.5909 22.2447 35.1626 22.2916C36.6232 22.428 37.5615 23.1904 37.9776 24.5788Z" fill="#FAC1D9"/>
<path opacity="0.986" fill-rule="evenodd" clip-rule="evenodd" d="M37.9776 31.1265C37.9776 31.5487 37.9776 31.971 37.9776 32.3932C37.5681 33.8935 36.6064 34.8436 35.0922 35.2434C30.0501 35.3245 25.0065 35.3597 19.9615 35.349C14.9165 35.3597 9.87285 35.3245 4.83071 35.2434C3.3166 34.8436 2.3548 33.8935 1.94531 32.3932C1.94531 31.971 1.94531 31.5487 1.94531 31.1265C2.21212 30.3319 2.75167 29.8041 3.56395 29.543C14.4956 29.4961 25.4273 29.4961 36.359 29.543C37.1713 29.8041 37.7108 30.3319 37.9776 31.1265Z" fill="#FAC1D9"/>
</svg>
