<svg width="30" height="30" viewBox="0 0 30 30" fill="none" xmlns="http://www.w3.org/2000/svg">
<circle cx="14.8591" cy="14.8591" r="14.8591" fill="white"/>
<path opacity="0.983" fill-rule="evenodd" clip-rule="evenodd" d="M13.7969 9.48631C13.9223 9.48114 14.0473 9.48634 14.1719 9.50193C14.6557 9.71786 15.1349 9.94182 15.6094 10.1738C15.3355 11.4642 15.6584 12.5788 16.5781 13.5176C15.7183 13.9318 14.8537 14.3381 13.9844 14.7363C12.0572 13.856 10.1405 12.9602 8.23438 12.0488C10.0911 11.1932 11.9453 10.3391 13.7969 9.48631Z" fill="#FBCCE0"/>
<path opacity="0.991" fill-rule="evenodd" clip-rule="evenodd" d="M7.98242 12.4844C9.89173 13.3504 11.798 14.2254 13.7012 15.1094C13.7324 17.4009 13.7428 19.6926 13.7324 21.9844C11.868 21.1512 10.0139 20.2918 8.16992 19.4062C8.08849 19.3457 8.0312 19.2676 7.99805 19.1719C7.98242 16.9427 7.97721 14.7136 7.98242 12.4844Z" fill="#FBCCE0"/>
<path opacity="0.981" fill-rule="evenodd" clip-rule="evenodd" d="M18.5472 7.98518C20.0941 7.87263 21.1826 8.51846 21.8128 9.92268C22.2669 11.4669 21.8346 12.6909 20.5159 13.5946C19.8183 13.9817 19.0787 14.091 18.2972 13.9227C17.0158 13.5632 16.2501 12.7298 16.0003 11.4227C15.8726 9.87504 16.5132 8.7865 17.9222 8.15706C18.1318 8.08913 18.3401 8.03183 18.5472 7.98518ZM19.8909 9.51643C20.1495 9.49163 20.2485 9.60622 20.1878 9.86018C19.8527 10.7075 19.5089 11.5512 19.1566 12.3914C19.076 12.4492 18.9874 12.4648 18.8909 12.4383C18.5221 12.1007 18.1627 11.7517 17.8128 11.3914C17.7138 11.0737 17.8232 10.9643 18.1409 11.0633C18.3862 11.3138 18.6362 11.5586 18.8909 11.7977C19.182 11.1279 19.458 10.4508 19.7191 9.76643C19.7543 9.66351 19.8116 9.58018 19.8909 9.51643Z" fill="#FBCCE0"/>
<path opacity="0.99" fill-rule="evenodd" clip-rule="evenodd" d="M16.9551 13.8594C17.2467 14.0155 17.5488 14.1562 17.8613 14.2812C18.5675 14.5126 19.2758 14.5282 19.9863 14.3281C19.9916 15.9427 19.9863 17.5573 19.9707 19.1719C19.8686 19.3719 19.7071 19.5021 19.4863 19.5625C17.7314 20.3852 15.971 21.1925 14.2051 21.9844C14.1999 19.7031 14.2051 17.4218 14.2207 15.1406C15.1326 14.708 16.0441 14.2809 16.9551 13.8594Z" fill="#FBCCE0"/>
</svg>
