<svg width="25" height="25" viewBox="0 0 25 25" fill="none" xmlns="http://www.w3.org/2000/svg">
<path d="M3.5 17.4321V21.1821H7.25L18.31 10.1221L14.56 6.37213L3.5 17.4321ZM21.21 7.22213C21.3027 7.12962 21.3762 7.01973 21.4264 6.89876C21.4766 6.77778 21.5024 6.6481 21.5024 6.51713C21.5024 6.38616 21.4766 6.25648 21.4264 6.13551C21.3762 6.01453 21.3027 5.90465 21.21 5.81213L18.87 3.47213C18.7775 3.37943 18.6676 3.30588 18.5466 3.2557C18.4257 3.20552 18.296 3.17969 18.165 3.17969C18.034 3.17969 17.9043 3.20552 17.7834 3.2557C17.6624 3.30588 17.5525 3.37943 17.46 3.47213L15.63 5.30213L19.38 9.05213L21.21 7.22213Z" fill="#FAC1D9"/>
</svg>
