<svg width="40" height="41" viewBox="0 0 40 41" fill="none" xmlns="http://www.w3.org/2000/svg">
<path opacity="0.932" fill-rule="evenodd" clip-rule="evenodd" d="M8.20239 2.58594C9.48727 2.86301 10.7608 3.19366 12.0232 3.57787C12.1544 3.63552 12.2646 3.72124 12.3538 3.83504C12.462 5.10171 12.4987 6.37531 12.464 7.65583C12.0232 7.65583 11.5823 7.65583 11.1415 7.65583C11.1537 6.77377 11.1415 5.89205 11.1047 5.01067C10.9886 4.73759 10.7805 4.57839 10.4802 4.53307C9.63989 4.3108 8.80717 4.06588 7.98196 3.7983C7.89282 3.36679 7.9663 2.96267 8.20239 2.58594Z" fill="#FAC1D9"/>
<path opacity="0.942" fill-rule="evenodd" clip-rule="evenodd" d="M4.82387 8.82882C9.47745 8.81655 14.131 8.82882 18.7845 8.86556C18.9157 8.92324 19.0259 9.00891 19.1151 9.12273C19.2743 9.4411 19.4335 9.75955 19.5927 10.0779C14.4003 10.1759 9.20801 10.1759 4.01562 10.0779C4.19633 9.59144 4.46575 9.17504 4.82387 8.82882Z" fill="#FAC1D9"/>
<path opacity="0.945" fill-rule="evenodd" clip-rule="evenodd" d="M2.84057 11.3288C8.84119 11.3166 14.8418 11.3288 20.8424 11.3656C21.1715 11.5913 21.3184 11.9097 21.2832 12.3208C21.3425 12.8111 21.1466 13.1295 20.6954 13.276C14.7683 13.325 8.84119 13.325 2.91404 13.276C2.44455 13.1283 2.27311 12.8099 2.39971 12.3208C2.29414 11.8565 2.4411 11.5258 2.84057 11.3288Z" fill="#FAC1D9"/>
<path opacity="0.99" fill-rule="evenodd" clip-rule="evenodd" d="M3.64844 14.4883C9.08572 14.4883 14.523 14.4883 19.9603 14.4883C19.9093 15.225 19.8358 15.9597 19.7398 16.6926C16.4597 17.7314 14.4881 19.9357 13.825 23.3055C13.5715 24.2098 13.7062 25.0426 14.2291 25.8037C13.5237 26.7342 13.5727 27.6282 14.376 28.4856C13.4943 29.6122 13.4943 30.7389 14.376 31.8655C13.7608 32.5999 13.5527 33.4448 13.7515 34.4005C13.9037 35.6968 14.4547 36.7866 15.4047 37.6702C12.3432 37.7192 9.28168 37.7192 6.22012 37.6702C5.86499 37.511 5.60782 37.2538 5.44862 36.8987C4.82423 29.4307 4.22416 21.9605 3.64844 14.4883Z" fill="#FAC1D9"/>
<path opacity="0.977" fill-rule="evenodd" clip-rule="evenodd" d="M21.5053 17.5749C24.6404 17.5626 27.7754 17.5749 30.9103 17.6117C34.3314 17.9466 36.499 19.7713 37.413 23.0857C37.519 23.67 37.5434 24.2578 37.4865 24.8491C37.405 25.0192 37.2703 25.1294 37.0824 25.1798C29.7795 25.2527 22.4809 25.2283 15.1863 25.1063C14.974 24.9105 14.8759 24.6656 14.8924 24.3715C15.329 20.3714 17.5333 18.1059 21.5053 17.5749ZM23.0483 18.8975C23.5238 18.8126 23.9279 18.935 24.2607 19.2649C24.362 19.7363 24.1783 20.0179 23.7096 20.1099C23.2626 20.2096 22.883 20.0994 22.5707 19.7792C22.4635 19.3364 22.6227 19.0425 23.0483 18.8975ZM26.7222 20.8079C27.0989 20.7794 27.4663 20.8161 27.8243 20.9181C28.1495 21.3179 28.1005 21.6608 27.6774 21.9468C27.277 22.0126 26.8851 21.9881 26.5017 21.8733C26.162 21.4244 26.2354 21.0693 26.7222 20.8079ZM20.991 21.4692C21.4164 21.4395 21.8327 21.4762 22.2401 21.5794C22.5532 22.0325 22.4552 22.3754 21.9462 22.6081C21.5966 22.6676 21.2537 22.643 20.9175 22.5346C20.5136 22.1439 20.5381 21.7888 20.991 21.4692Z" fill="#FAC1D9"/>
<path opacity="0.951" fill-rule="evenodd" clip-rule="evenodd" d="M15.3341 26.3913C22.6084 26.3791 29.8826 26.3913 37.1567 26.4281C37.5362 26.7015 37.622 27.0566 37.4139 27.4935C37.3096 27.564 37.1994 27.6252 37.0833 27.6772C35.9282 27.6818 34.777 27.7307 33.6298 27.8241C32.8429 28.2911 32.1081 28.8299 31.4255 29.4406C31.2051 29.5876 30.9847 29.5876 30.7643 29.4406C30.2254 28.9997 29.6866 28.5589 29.1478 28.118C28.87 27.9545 28.576 27.8321 28.266 27.7506C23.9799 27.7262 19.6937 27.7016 15.4076 27.6772C14.749 27.2838 14.7244 26.8553 15.3341 26.3913Z" fill="#FAC1D9"/>
<path opacity="0.965" fill-rule="evenodd" clip-rule="evenodd" d="M15.8454 28.8874C19.9357 28.8751 24.0259 28.8874 28.116 28.9242C28.2443 28.9588 28.3668 29.0078 28.4834 29.0711C29.0823 29.5786 29.6946 30.0685 30.3203 30.5406C30.8347 30.8836 31.349 30.8836 31.8634 30.5406C32.5246 30.0263 33.1859 29.512 33.8472 28.9976C34.7482 28.8796 35.6545 28.8552 36.5659 28.9242C37.2034 29.0973 37.5218 29.5137 37.5211 30.1733C37.544 30.8118 37.2501 31.2282 36.6393 31.4224C29.7081 31.4714 22.7767 31.4714 15.8454 31.4224C14.9255 30.9894 14.6928 30.3159 15.1474 29.4018C15.3332 29.153 15.5659 28.9816 15.8454 28.8874Z" fill="#FAC1D9"/>
<path opacity="0.984" fill-rule="evenodd" clip-rule="evenodd" d="M15.4059 32.6374C22.6311 32.6251 29.8563 32.6374 37.0815 32.6742C37.2694 32.7245 37.4042 32.8347 37.4856 33.0048C37.7977 34.8142 37.1976 36.2226 35.6855 37.2297C35.3156 37.4346 34.9237 37.5816 34.5098 37.6706C28.9991 37.7196 23.4883 37.7196 17.9776 37.6706C15.9796 37.1291 14.9509 35.8187 14.8915 33.7396C14.799 33.2278 14.9704 32.8604 15.4059 32.6374Z" fill="#FAC1D9"/>
</svg>
