<svg width="30" height="30" viewBox="0 0 30 30" fill="none" xmlns="http://www.w3.org/2000/svg">
<circle cx="14.8591" cy="14.8591" r="14.8591" fill="white"/>
<path opacity="0.955" fill-rule="evenodd" clip-rule="evenodd" d="M14.8501 8C15.9391 8.01853 16.5889 8.56084 16.7996 9.62693C16.8594 10.4286 16.5461 11.0317 15.8599 11.4362C14.8741 11.8525 14.0653 11.6328 13.4336 10.777C13.0506 10.0617 13.088 9.36977 13.5458 8.70126C13.8901 8.29311 14.3249 8.05936 14.8501 8ZM14.8782 8.30856C14.953 8.30856 15.0278 8.30856 15.1026 8.30856C15.1026 8.44881 15.1026 8.58906 15.1026 8.72931C15.0278 8.72931 14.953 8.72931 14.8782 8.72931C14.8782 8.58906 14.8782 8.44881 14.8782 8.30856ZM13.9806 8.70126C14.1066 8.75204 14.2094 8.83619 14.2891 8.95372C14.2522 9.00465 14.2102 9.0514 14.1629 9.09397C14.0689 9.00471 13.9801 8.91121 13.8964 8.81346C13.9251 8.77555 13.9532 8.73815 13.9806 8.70126ZM15.9441 8.70126C16.011 8.72576 16.0671 8.76784 16.1124 8.82749C16.0231 8.92144 15.9296 9.01027 15.8319 9.09397C15.781 9.05709 15.7342 9.01501 15.6916 8.96774C15.7815 8.88258 15.8657 8.79376 15.9441 8.70126ZM14.8782 9.12202C14.953 9.12202 15.0278 9.12202 15.1026 9.12202C15.0979 9.29058 15.1026 9.45888 15.1166 9.62693C15.14 9.6503 15.1634 9.67368 15.1867 9.69706C15.336 9.71106 15.4856 9.71574 15.6355 9.71108C15.6355 9.78588 15.6355 9.86068 15.6355 9.93549C15.4856 9.93083 15.336 9.9355 15.1867 9.94951C15.0645 10.0736 14.9383 10.0782 14.808 9.96354C14.7471 9.83835 14.7657 9.72615 14.8642 9.62693C14.8781 9.45888 14.8828 9.29058 14.8782 9.12202ZM13.4757 9.71108C13.6159 9.71108 13.7562 9.71108 13.8964 9.71108C13.8964 9.78588 13.8964 9.86068 13.8964 9.93549C13.7562 9.93549 13.6159 9.93549 13.4757 9.93549C13.4757 9.86068 13.4757 9.78588 13.4757 9.71108ZM16.0843 9.71108C16.2246 9.71108 16.3649 9.71108 16.5051 9.71108C16.5051 9.78588 16.5051 9.86068 16.5051 9.93549C16.3649 9.93549 16.2246 9.93549 16.0843 9.93549C16.0843 9.86068 16.0843 9.78588 16.0843 9.71108ZM14.1208 10.5245C14.1877 10.549 14.2438 10.5911 14.2891 10.6508C14.1986 10.7528 14.1051 10.851 14.0086 10.9453C13.9525 10.9079 13.9057 10.8612 13.8684 10.8051C13.9531 10.711 14.0373 10.6175 14.1208 10.5245ZM15.8319 10.5245C15.924 10.6261 16.0175 10.729 16.1124 10.8331C16.075 10.8892 16.0282 10.936 15.9721 10.9734C15.8744 10.8897 15.7809 10.8008 15.6916 10.7069C15.7337 10.6416 15.7804 10.5808 15.8319 10.5245ZM14.8782 10.9173C14.953 10.9173 15.0278 10.9173 15.1026 10.9173C15.1026 11.0575 15.1026 11.1978 15.1026 11.338C15.0278 11.338 14.953 11.338 14.8782 11.338C14.8782 11.1978 14.8782 11.0575 14.8782 10.9173Z" fill="#FAC1D9"/>
<path opacity="0.972" fill-rule="evenodd" clip-rule="evenodd" d="M19.8143 10.4666C20.416 10.4197 20.8508 10.6628 21.1187 11.1959C21.3251 11.886 21.1147 12.4049 20.4876 12.7527C19.8651 12.9535 19.3649 12.7899 18.9869 12.2619C18.692 11.6224 18.8183 11.0848 19.3655 10.649C19.5087 10.5631 19.6583 10.5023 19.8143 10.4666Z" fill="#FAC1D9"/>
<path opacity="0.972" fill-rule="evenodd" clip-rule="evenodd" d="M9.82976 10.5234C10.8105 10.5772 11.2359 11.0914 11.1061 12.0662C10.8357 12.7321 10.3448 12.9986 9.63341 12.8657C8.89768 12.5582 8.64055 12.0206 8.86202 11.2528C9.05709 10.8355 9.37967 10.5924 9.82976 10.5234Z" fill="#FAC1D9"/>
<path opacity="0.921" fill-rule="evenodd" clip-rule="evenodd" d="M15.0444 12.74C15.3905 12.7354 15.7364 12.74 16.0823 12.7541C16.1297 12.7934 16.1484 12.8448 16.1384 12.9083C16.5249 12.9729 16.6698 13.1973 16.5731 13.5816C16.4877 13.7463 16.3521 13.8398 16.1664 13.8621C16.171 13.9653 16.1664 14.0682 16.1524 14.1706C16.1384 14.1846 16.1243 14.1987 16.1103 14.2127C15.755 14.2314 15.3997 14.2314 15.0444 14.2127C15.0304 14.1987 15.0163 14.1846 15.0023 14.1706C14.9836 13.7125 14.9836 13.2543 15.0023 12.7961C15.0224 12.7809 15.0365 12.7622 15.0444 12.74ZM16.1664 13.0766C16.4106 13.1536 16.4901 13.3125 16.4048 13.5535C16.3433 13.6217 16.2685 13.6684 16.1804 13.6938C16.1664 13.4883 16.1618 13.2826 16.1664 13.0766Z" fill="#FAC1D9"/>
<path opacity="0.957" fill-rule="evenodd" clip-rule="evenodd" d="M9.77213 12.9639C10.4185 12.9292 10.8813 13.2003 11.1606 13.7774C11.2482 13.9766 11.2716 14.1823 11.2308 14.3945C10.9596 14.1934 10.6885 13.9924 10.4173 13.7914C10.0389 13.6432 9.7444 13.7414 9.53371 14.0859C9.45033 14.3404 9.48773 14.5742 9.64591 14.7872C10.1767 15.1858 10.705 15.5879 11.2308 15.9933C11.2581 16.0563 11.2675 16.1217 11.2588 16.1897C11.2214 16.1897 11.184 16.1897 11.1466 16.1897C11.1466 16.5544 11.1466 16.919 11.1466 17.2837C11.7544 17.279 12.3622 17.2837 12.9699 17.2977C13.012 17.3398 13.054 17.3818 13.0961 17.4239C13.5053 18.4178 13.898 19.4182 14.2742 20.4253C14.2778 21.0159 13.9832 21.273 13.3907 21.1967C13.2673 21.1514 13.1598 21.0812 13.0681 20.9863C12.725 20.1629 12.3931 19.3354 12.0723 18.5039C11.2872 18.5194 10.5018 18.5194 9.71603 18.5039C9.12001 18.366 8.76003 17.9967 8.63609 17.3959C8.61739 17.6857 8.61739 17.9756 8.63609 18.2654C8.67628 18.4084 8.76511 18.5066 8.90257 18.56C9.93105 18.574 10.9596 18.5787 11.9881 18.574C11.9881 18.7703 11.9881 18.9667 11.9881 19.1631C11.8385 19.1631 11.6889 19.1631 11.5393 19.1631C11.7139 20.0966 11.9009 21.027 12.1003 21.9541C12.0583 21.9588 12.0162 21.9634 11.9741 21.9681C11.9185 21.9645 11.8718 21.9458 11.8338 21.912C11.6425 20.9971 11.4601 20.0808 11.2869 19.1631C11.0617 19.1538 10.8373 19.1631 10.6137 19.1911C10.8078 20.1153 10.9949 21.041 11.1747 21.9681C11.0905 21.9681 11.0064 21.9681 10.9222 21.9681C10.7396 21.041 10.5479 20.1153 10.3472 19.1911C10.252 19.1643 10.1538 19.1549 10.0526 19.1631C9.87937 20.0808 9.69704 20.9971 9.50566 21.912C9.46771 21.9458 9.42096 21.9645 9.3654 21.9681C9.32333 21.9634 9.28125 21.9588 9.23918 21.9541C9.43862 21.027 9.62563 20.0966 9.80019 19.1631C9.53838 19.1631 9.27657 19.1631 9.01477 19.1631C8.82418 20.0973 8.63718 21.0323 8.45376 21.9681C8.36759 21.977 8.28344 21.9677 8.20131 21.9401C8.40535 21.018 8.61105 20.097 8.81842 19.1771C8.62997 19.1708 8.44297 19.1521 8.25741 19.121C8.14547 19.0652 8.07535 18.9763 8.04703 18.8545C8.033 17.826 8.02833 16.7975 8.033 15.7689C8.22936 15.7689 8.42571 15.7689 8.62206 15.7689C8.61739 15.2078 8.62206 14.6468 8.63609 14.0859C8.77058 13.4605 9.14926 13.0865 9.77213 12.9639Z" fill="#FAC1D9"/>
<path opacity="0.972" fill-rule="evenodd" clip-rule="evenodd" d="M19.7875 12.9941C20.5273 12.9406 21.0275 13.2585 21.2882 13.9478C21.3202 14.5497 21.3342 15.1528 21.3303 15.757C21.3342 16.3612 21.3202 16.9643 21.2882 17.5663C21.0858 18.1706 20.665 18.4885 20.026 18.52C19.3109 18.4896 18.5956 18.4849 17.8801 18.506C17.571 19.3066 17.2578 20.106 16.9404 20.9043C16.7494 21.1676 16.4923 21.2657 16.169 21.1988C15.8177 21.062 15.6634 20.8049 15.7062 20.4274C16.0784 19.4416 16.4618 18.4598 16.8563 17.4821C16.9088 17.4202 16.9696 17.3688 17.0386 17.3279C17.6369 17.3138 18.2353 17.3092 18.8338 17.3138C18.8338 16.9585 18.8338 16.6032 18.8338 16.2479C18.7837 16.2559 18.7369 16.2466 18.6936 16.2199C19.2342 16.0268 19.697 15.7182 20.0821 15.2942C20.3523 14.9517 20.5253 14.5636 20.601 14.1301C20.5518 13.7536 20.3414 13.5339 19.9699 13.4709C19.5779 13.5262 19.3535 13.7506 19.2967 14.1441C19.1586 14.4178 18.9576 14.6329 18.6936 14.7893C18.6717 14.7548 18.6576 14.7174 18.6515 14.6771C17.7356 14.9141 16.9642 14.6757 16.3373 13.9618C16.6871 13.7679 16.79 13.4874 16.6459 13.1203C16.7399 13.1142 16.8241 13.1423 16.8983 13.2044C17.4395 13.9148 18.094 14.0458 18.8619 13.5971C19.0991 13.2824 19.4077 13.0814 19.7875 12.9941Z" fill="#FAC1D9"/>
<path opacity="0.956" fill-rule="evenodd" clip-rule="evenodd" d="M19.8134 13.6641C20.3072 13.6675 20.4896 13.9107 20.3604 14.3934C20.1202 15.0918 19.6574 15.5827 18.9719 15.866C18.3055 16.134 17.6136 16.2462 16.8961 16.2026C16.5426 16.1268 16.4257 15.9164 16.5455 15.5715C16.6051 15.4645 16.6939 15.3944 16.812 15.3611C17.5854 15.3781 18.3148 15.2098 18.9999 14.8562C19.3458 14.6275 19.5281 14.3049 19.5469 13.8885C19.6075 13.7761 19.6964 13.7013 19.8134 13.6641Z" fill="#FAC1D9"/>
<path opacity="0.953" fill-rule="evenodd" clip-rule="evenodd" d="M10.0251 13.9196C10.131 13.9129 10.2338 13.9269 10.3337 13.9616C10.8076 14.3328 11.2892 14.6928 11.7783 15.0416C12.107 14.8889 12.4296 14.7253 12.746 14.5507C12.9967 14.4543 13.1977 14.5151 13.3491 14.733C13.4349 14.9806 13.3741 15.1816 13.1668 15.3361C12.7308 15.5681 12.2914 15.7925 11.8484 16.0093C11.6958 16.0423 11.5556 16.0142 11.4277 15.9252C10.89 15.5185 10.3524 15.1117 9.81476 14.705C9.59726 14.3621 9.66739 14.1003 10.0251 13.9196Z" fill="#FAC1D9"/>
<path opacity="0.935" fill-rule="evenodd" clip-rule="evenodd" d="M13.5867 14.1985C13.9434 14.1897 14.2987 14.1991 14.6526 14.2266C14.69 14.7034 14.69 15.1803 14.6526 15.6571C14.3079 15.6893 13.962 15.694 13.6147 15.6712C13.589 15.6607 13.5656 15.6467 13.5446 15.6291C13.5464 15.5034 13.523 15.3865 13.4745 15.2785C13.5329 15.1739 13.5703 15.0617 13.5867 14.9419C13.5507 14.8086 13.5273 14.673 13.5165 14.5351C13.4871 14.5637 13.4544 14.5683 13.4184 14.5491C13.3065 14.4204 13.3439 14.3596 13.5306 14.3668C13.5236 14.3007 13.5423 14.2446 13.5867 14.1985Z" fill="#FAC1D9"/>
<path opacity="0.912" fill-rule="evenodd" clip-rule="evenodd" d="M21.3572 15.7695C21.5722 15.7695 21.7873 15.7695 22.0023 15.7695C22.0155 16.8179 22.0015 17.8651 21.9603 18.9112C21.9088 19 21.8387 19.0702 21.7499 19.1216C21.5744 19.1585 21.3967 19.1725 21.2169 19.1636C21.3967 20.0907 21.5837 21.0164 21.7779 21.9406C21.6958 21.9682 21.6116 21.9776 21.5255 21.9687C21.3421 21.0329 21.1551 20.0979 20.9645 19.1636C20.7027 19.1636 20.4408 19.1636 20.179 19.1636C20.3536 20.0972 20.5406 21.0276 20.7401 21.9547C20.698 21.9594 20.6559 21.964 20.6138 21.9687C20.5583 21.9651 20.5115 21.9464 20.4736 21.9126C20.2822 20.9977 20.0999 20.0814 19.9266 19.1636C19.8254 19.1555 19.7273 19.1649 19.6321 19.1917C19.4313 20.1159 19.2397 21.0415 19.057 21.9687C18.9729 21.9687 18.8887 21.9687 18.8046 21.9687C18.9844 21.0416 19.1714 20.1159 19.3656 19.1917C19.142 19.1637 18.9176 19.1544 18.6924 19.1636C18.5191 20.0814 18.3368 20.9977 18.1454 21.9126C18.1074 21.9464 18.0607 21.9651 18.0051 21.9687C17.9631 21.964 17.921 21.9594 17.8789 21.9547C18.0784 21.0275 18.2654 20.0971 18.4399 19.1636C18.2903 19.1636 18.1407 19.1636 17.9911 19.1636C17.9911 18.9766 17.9911 18.7896 17.9911 18.6026C19.0197 18.6073 20.0482 18.6026 21.0767 18.5886C21.2149 18.5346 21.3037 18.4364 21.3431 18.2941C21.3572 17.4526 21.3619 16.6111 21.3572 15.7695Z" fill="#FAC1D9"/>
<path opacity="0.959" fill-rule="evenodd" clip-rule="evenodd" d="M11.3438 16.4141C13.7748 16.4141 16.2058 16.4141 18.6369 16.4141C18.6369 16.6478 18.6369 16.8816 18.6369 17.1153C16.2058 17.1153 13.7748 17.1153 11.3438 17.1153C11.3438 16.8816 11.3438 16.6478 11.3438 16.4141Z" fill="#FAC1D9"/>
<path opacity="0.958" fill-rule="evenodd" clip-rule="evenodd" d="M14.7668 17.3125C14.9164 17.3125 15.066 17.3125 15.2156 17.3125C15.2156 18.6215 15.2156 19.9305 15.2156 21.2396C15.6077 21.2712 15.991 21.346 16.3657 21.464C16.3657 21.6323 16.3657 21.8006 16.3657 21.9689C15.4493 21.9689 14.533 21.9689 13.6167 21.9689C13.6075 21.7995 13.6168 21.6312 13.6448 21.464C14.0067 21.3289 14.3807 21.254 14.7668 21.2396C14.7668 19.9305 14.7668 18.6215 14.7668 17.3125Z" fill="#FAC1D9"/>
</svg>
