<svg width="40" height="41" viewBox="0 0 40 41" fill="none" xmlns="http://www.w3.org/2000/svg">
<path opacity="0.928" fill-rule="evenodd" clip-rule="evenodd" d="M19.6774 1.78125C19.8926 1.78125 20.1078 1.78125 20.3229 1.78125C20.6224 2.09542 20.6821 2.45403 20.5022 2.85709C20.1165 3.15017 19.9731 3.53269 20.0719 4.00464C20.3588 4.33935 20.6457 4.67405 20.9326 5.00876C21.4754 6.17278 21.2722 7.18885 20.3229 8.05696C19.5672 8.23375 19.2444 7.9349 19.3547 7.16043C19.7638 6.8209 19.9311 6.39056 19.8567 5.86943C19.6202 5.56104 19.3572 5.27415 19.0678 5.00876C18.4163 3.76662 18.6195 2.69078 19.6774 1.78125Z" fill="#FAC1D9"/>
<path opacity="0.926" fill-rule="evenodd" clip-rule="evenodd" d="M12.9313 5.51562C13.5322 5.59318 13.7593 5.92789 13.6127 6.51974C13.3077 6.80697 13.1044 7.15363 13.003 7.55971C13.0702 7.75383 13.1658 7.93314 13.2899 8.09763C14.6035 9.32007 14.6275 10.5752 13.3616 11.8631C12.6059 12.0399 12.2831 11.741 12.3934 10.9665C12.5887 10.7473 12.756 10.5082 12.8954 10.2493C12.9608 9.96586 12.913 9.70285 12.752 9.46036C11.406 8.21581 11.3701 6.93676 12.6444 5.62321C12.7561 5.60815 12.8518 5.57229 12.9313 5.51562Z" fill="#FAC1D9"/>
<path opacity="0.927" fill-rule="evenodd" clip-rule="evenodd" d="M26.918 5.51562C27.5602 5.66628 27.7395 6.0488 27.4559 6.66318C27.0858 6.96065 26.9423 7.34317 27.0255 7.81074C27.3124 8.14545 27.5993 8.48015 27.8862 8.81486C28.4517 9.98357 28.2486 10.9997 27.2766 11.8631C26.7086 12.0726 26.3739 11.8813 26.2725 11.2893C26.2755 11.1482 26.3113 11.0167 26.38 10.8948C26.748 10.5657 26.8915 10.1592 26.8104 9.67552C26.5235 9.3408 26.2366 9.00614 25.9497 8.67141C25.4137 7.55184 25.593 6.55967 26.4876 5.69493C26.639 5.63435 26.7825 5.57458 26.918 5.51562Z" fill="#FAC1D9"/>
<path opacity="0.982" fill-rule="evenodd" clip-rule="evenodd" d="M18.5252 14.4073C19.1248 14.3836 19.7225 14.4075 20.3183 14.479C17.8056 17.415 16.6939 20.8098 16.9832 24.6636C17.641 25.7995 18.5615 26.0744 19.7445 25.4884C20.1295 25.2085 20.3806 24.8379 20.4976 24.3767C20.5065 20.3177 22.1561 17.1381 25.4465 14.8376C26.7807 15.091 28.0837 15.4616 29.3553 15.9493C27.6163 18.4892 26.8394 21.2983 27.0243 24.3767C27.5791 25.7358 28.5234 26.1064 29.8574 25.4884C30.3647 25.1314 30.6397 24.6412 30.6822 24.0181C30.6354 21.6965 31.2928 19.6047 32.6546 17.7424C32.7263 17.6946 32.798 17.6946 32.8697 17.7424C35.0726 19.2201 36.5907 21.2164 37.4241 23.7312C37.8833 25.6467 37.7877 27.5354 37.1372 29.3973C36.3176 31.1292 34.9429 32.0496 33.0132 32.1586C24.3109 32.2064 15.6085 32.2064 6.90621 32.1586C4.47548 31.9272 2.98126 30.6243 2.42356 28.2497C1.77284 25.1146 2.49007 22.3413 4.57523 19.9299C5.97107 18.3834 7.62069 17.1881 9.52408 16.3438C9.17178 17.0483 8.81317 17.7656 8.44825 18.4955C7.6469 20.3505 7.28829 22.287 7.37241 24.305C7.81172 25.5945 8.68434 26.0368 9.99028 25.6319C10.5721 25.3411 10.9187 24.8749 11.0303 24.2333C11.0204 21.0865 12.156 18.4448 14.4371 16.308C15.1378 15.7028 15.8789 15.1529 16.6605 14.6583C17.284 14.5287 17.9056 14.445 18.5252 14.4073ZM7.76688 29.6842C15.8955 29.6722 24.024 29.6842 32.1525 29.72C32.554 29.9133 32.6616 30.2122 32.4753 30.6166C32.3462 30.7469 32.1908 30.8306 32.0091 30.8676C23.9761 30.9154 15.9432 30.9154 7.91033 30.8676C7.36488 30.7212 7.22144 30.3985 7.47999 29.8994C7.5805 29.8261 7.67613 29.7544 7.76688 29.6842Z" fill="#FAC1D9"/>
<path opacity="0.928" fill-rule="evenodd" clip-rule="evenodd" d="M21.8986 14.4766C22.5072 14.4814 23.1049 14.5531 23.6917 14.6917C20.8089 17.2308 19.3386 20.4344 19.2808 24.3025C19.0372 24.5681 18.7383 24.6517 18.3842 24.5536C18.2246 24.4656 18.117 24.334 18.0615 24.1591C17.9894 20.3843 19.2685 17.1568 21.8986 14.4766Z" fill="#FAC1D9"/>
<path opacity="0.927" fill-rule="evenodd" clip-rule="evenodd" d="M14.0828 14.9062C14.1563 14.9347 14.1682 14.9825 14.1186 15.0497C11.2732 17.49 9.81477 20.5979 9.74355 24.3736C9.44684 24.6124 9.12408 24.6482 8.7753 24.4812C8.68913 24.4164 8.62936 24.3328 8.59599 24.2302C8.46967 20.8786 9.53355 17.9739 11.7876 15.5159C12.5556 15.2882 13.3206 15.085 14.0828 14.9062Z" fill="#FAC1D9"/>
<path opacity="0.928" fill-rule="evenodd" clip-rule="evenodd" d="M30.4341 16.4141C30.8732 16.5738 31.2796 16.789 31.6534 17.0596C30.1596 19.1841 29.4304 21.551 29.4658 24.1601C29.29 24.5609 28.9912 24.6924 28.5693 24.5546C28.4412 24.4983 28.3336 24.4146 28.2466 24.3035C28.0706 22.2278 28.4292 20.2435 29.3224 18.3506C29.6584 17.6777 30.0289 17.0322 30.4341 16.4141Z" fill="#FAC1D9"/>
<path opacity="0.928" fill-rule="evenodd" clip-rule="evenodd" d="M2.60542 33.4146C14.1767 33.4027 25.7479 33.4146 37.3191 33.4505C37.8596 33.8215 37.8835 34.228 37.3908 34.6698C37.2952 34.6937 37.1995 34.7176 37.1039 34.7415C25.6762 34.7894 14.2483 34.7894 2.82059 34.7415C2.2612 34.5941 2.08189 34.2475 2.28267 33.7015C2.38285 33.5889 2.49044 33.4933 2.60542 33.4146Z" fill="#FAC1D9"/>
<path opacity="0.978" fill-rule="evenodd" clip-rule="evenodd" d="M35.0232 38.5039C24.982 38.5039 14.9409 38.5039 4.89976 38.5039C3.75618 38.0352 3.27804 37.1746 3.46531 35.9219C14.4627 35.9219 25.4602 35.9219 36.4576 35.9219C36.6449 37.1746 36.1667 38.0352 35.0232 38.5039Z" fill="#FAC1D9"/>
</svg>
