<svg width="30" height="30" viewBox="0 0 30 30" fill="none" xmlns="http://www.w3.org/2000/svg">
<circle cx="14.8591" cy="14.8591" r="14.8591" fill="white"/>
<path d="M13 21C13 21 12 21 12 20C12 19 13 16 17 16C21 16 22 19 22 20C22 21 21 21 21 21H13ZM17 15C17.7956 15 18.5587 14.6839 19.1213 14.1213C19.6839 13.5587 20 12.7956 20 12C20 11.2044 19.6839 10.4413 19.1213 9.87868C18.5587 9.31607 17.7956 9 17 9C16.2044 9 15.4413 9.31607 14.8787 9.87868C14.3161 10.4413 14 11.2044 14 12C14 12.7956 14.3161 13.5587 14.8787 14.1213C15.4413 14.6839 16.2044 15 17 15ZM11.216 21C11.0678 20.6878 10.9939 20.3455 11 20C11 18.645 11.68 17.25 12.936 16.28C12.3092 16.0864 11.656 15.992 11 16C7 16 6 19 6 20C6 21 7 21 7 21H11.216ZM10.5 15C11.163 15 11.7989 14.7366 12.2678 14.2678C12.7366 13.7989 13 13.163 13 12.5C13 11.837 12.7366 11.2011 12.2678 10.7322C11.7989 10.2634 11.163 10 10.5 10C9.83696 10 9.20107 10.2634 8.73223 10.7322C8.26339 11.2011 8 11.837 8 12.5C8 13.163 8.26339 13.7989 8.73223 14.2678C9.20107 14.7366 9.83696 15 10.5 15Z" fill="#FAC1D9"/>
</svg>
