<svg width="40" height="41" viewBox="0 0 40 41" fill="none" xmlns="http://www.w3.org/2000/svg">
<path opacity="0.993" fill-rule="evenodd" clip-rule="evenodd" d="M25.268 1.78125C26.1287 1.78125 26.9893 1.78125 27.85 1.78125C32.1846 2.37588 35.3284 4.62319 37.2815 8.52315C37.8088 9.72494 38.1555 10.9682 38.3215 12.2527C38.3215 13.1134 38.3215 13.9741 38.3215 14.8347C37.5207 20.023 34.6279 23.4537 29.6431 25.1269C28.3348 25.3992 27.0198 25.6383 25.6983 25.8441C23.3262 26.3849 21.0789 27.2456 18.9564 28.4261C18.1343 28.6511 17.3692 28.5315 16.6613 28.0675C15.1193 26.5255 13.5772 24.9834 12.0352 23.4414C11.5712 22.7335 11.4516 21.9684 11.6766 21.1463C12.6148 19.461 13.3559 17.6919 13.9 15.8388C14.325 14.0586 14.6836 12.2656 14.9758 10.4597C16.649 5.47481 20.0797 2.58201 25.268 1.78125Z" fill="#FAC1D9"/>
<path opacity="0.98" fill-rule="evenodd" clip-rule="evenodd" d="M9.56275 38.5065C9.08458 38.5065 8.60645 38.5065 8.1283 38.5065C6.30933 38.0022 5.32912 36.8068 5.18768 34.9204C3.30128 34.7789 2.10591 33.7987 1.60156 31.9798C1.60156 31.5016 1.60156 31.0235 1.60156 30.5453C2.31484 28.251 3.86883 27.3066 6.26352 27.7123C6.86109 27.8734 7.3751 28.1722 7.80555 28.6088C9.10853 27.3058 10.4114 26.0029 11.7144 24.6999C11.7623 24.6521 11.81 24.6521 11.8579 24.6999C13.0662 25.8963 14.2616 27.1036 15.444 28.3219C14.142 29.6598 12.8271 30.9866 11.4993 32.3025C12.4319 33.3193 12.7307 34.5027 12.3958 35.8528C11.9221 37.2471 10.9778 38.1317 9.56275 38.5065Z" fill="#FAC1D9"/>
</svg>
