<svg width="40" height="41" viewBox="0 0 40 41" fill="none" xmlns="http://www.w3.org/2000/svg">
<path opacity="0.962" fill-rule="evenodd" clip-rule="evenodd" d="M21.8398 1.64062C22.2012 1.64062 22.5626 1.64062 22.924 1.64062C28.6546 2.36032 33.0877 5.13105 36.2236 9.95284C35.4852 10.4368 34.7263 10.8946 33.9468 11.3262C31.1153 6.95146 27.0796 4.5903 21.8398 4.24271C21.8398 3.37535 21.8398 2.50799 21.8398 1.64062Z" fill="#FAC1D9"/>
<path opacity="0.96" fill-rule="evenodd" clip-rule="evenodd" d="M18.8778 3.51953C19.0464 3.51953 19.2151 3.51953 19.3837 3.51953C19.3837 4.41098 19.3837 5.30244 19.3837 6.1939C14.1777 6.50703 10.1541 8.83203 7.31296 13.1689C7.24068 13.2171 7.1684 13.2171 7.09612 13.1689C6.38319 12.7525 5.68449 12.3188 5 11.8679C8.26457 6.84938 12.8905 4.06659 18.8778 3.51953Z" fill="#FAC1D9"/>
<path opacity="0.958" fill-rule="evenodd" clip-rule="evenodd" d="M21.8405 4.89453C26.8227 5.23997 30.6777 7.48065 33.4053 11.6166C29.5827 13.8836 25.7398 16.1243 21.8766 18.3386C21.8405 13.8573 21.8284 9.37597 21.8405 4.89453ZM23.3583 5.97873C23.5641 5.94477 23.7327 6.005 23.8643 6.15943C23.6414 6.56 23.3041 6.72865 22.8524 6.66539C22.7789 6.58954 22.7668 6.50521 22.8162 6.41241C22.969 6.22298 23.1497 6.07842 23.3583 5.97873ZM25.3099 6.91837C26.2487 6.88064 26.6221 7.31432 26.4303 8.21942C26.0704 8.76083 25.6005 8.86925 25.0208 8.54468C24.4893 7.88915 24.5857 7.34705 25.3099 6.91837ZM23.8643 9.52046C24.5828 9.5219 25.2213 9.73874 25.7797 10.171C25.7614 10.5864 25.5326 10.8033 25.0931 10.8215C24.658 10.6002 24.2003 10.4435 23.7197 10.3517C23.4039 10.2087 23.3557 10.0039 23.5752 9.7373C23.6765 9.6635 23.7729 9.59122 23.8643 9.52046ZM28.3457 9.66502C28.9692 9.69812 29.3306 10.0234 29.4299 10.6408C29.2817 11.3048 28.8721 11.594 28.2011 11.5082C27.6251 11.2263 27.4444 10.7806 27.659 10.171C27.8418 9.92631 28.0707 9.75768 28.3457 9.66502ZM30.7309 10.7492C30.8302 10.7379 30.9266 10.7499 31.02 10.7854C30.7564 10.9696 30.4673 11.066 30.1527 11.0745C30.3405 10.9447 30.5333 10.8363 30.7309 10.7492ZM23.792 12.1225C24.8086 12.0674 25.411 12.5372 25.599 13.532C25.3215 14.7308 24.5987 15.1404 23.4306 14.7608C22.611 14.1081 22.5147 13.3611 23.1415 12.5201C23.3412 12.3485 23.5581 12.2159 23.792 12.1225ZM26.8278 12.1225C26.9447 12.1614 27.0652 12.1855 27.1892 12.1948C27.1199 12.6133 26.8669 12.8542 26.4303 12.9176C26.0923 12.857 26.0321 12.7004 26.2496 12.4478C26.4374 12.3181 26.6302 12.2096 26.8278 12.1225Z" fill="#FAC1D9"/>
<path opacity="0.96" fill-rule="evenodd" clip-rule="evenodd" d="M18.4455 6.84375C18.7587 6.84375 19.0719 6.84375 19.3851 6.84375C19.3851 11.301 19.3851 15.7583 19.3851 20.2156C15.4876 18.074 11.6327 15.8574 7.82031 13.5658C10.3229 9.69947 13.8646 7.4588 18.4455 6.84375ZM16.9999 8.79531C17.8165 8.95816 18.0936 9.44005 17.8311 10.2409C17.3041 10.8184 16.7741 10.8184 16.2409 10.2409C15.9826 9.48031 16.2356 8.99849 16.9999 8.79531ZM11.9403 11.1083C13.0927 11.0682 13.6589 11.6223 13.6389 12.7707C13.2417 13.8752 12.5068 14.1764 11.4343 13.6742C10.6633 12.9032 10.6633 12.1323 11.4343 11.3613C11.6096 11.2736 11.7783 11.1893 11.9403 11.1083ZM16.0602 11.8311C16.7268 11.7858 17.2689 12.0267 17.6865 12.5539C17.7302 12.8494 17.5976 13.0301 17.289 13.096C17.0962 13.1442 16.9035 13.1442 16.7108 13.096C16.4464 12.8201 16.1332 12.6153 15.7711 12.4816C15.6894 12.3678 15.6773 12.2473 15.735 12.1202C15.836 12.0067 15.9444 11.9103 16.0602 11.8311ZM16.4216 14.7223C17.3907 14.8291 17.6918 15.3351 17.3251 16.2402C16.7953 16.7422 16.2893 16.7182 15.8073 16.1679C15.5205 15.4654 15.7253 14.9835 16.4216 14.7223Z" fill="#FAC1D9"/>
<path opacity="0.965" fill-rule="evenodd" clip-rule="evenodd" d="M4.34771 12.9883C5.14425 13.3867 5.91524 13.8324 6.66068 14.3255C4.62961 18.4574 4.47301 22.6617 6.19086 26.9383C6.38642 27.3415 6.59121 27.7391 6.80524 28.131C6.08225 28.6131 5.33536 29.0588 4.56455 29.4681C4.33061 29.2181 4.14991 28.929 4.02245 28.6008C2.07097 24.1488 1.87822 19.6192 3.44421 15.0121C3.72482 14.3263 4.02599 13.6517 4.34771 12.9883Z" fill="#FAC1D9"/>
<path opacity="0.965" fill-rule="evenodd" clip-rule="evenodd" d="M35.4302 12.9892C35.5021 12.983 35.5624 13.0072 35.6109 13.0615C37.6422 17.1606 38.0759 21.4251 36.9119 25.8551C36.5747 27.0595 36.1169 28.216 35.5386 29.3245C35.4888 29.3865 35.4286 29.4346 35.3579 29.4691C34.5871 29.0598 33.8402 28.614 33.1172 28.1319C35.203 24.1501 35.48 20.0421 33.9484 15.8082C33.7472 15.3008 33.5183 14.8068 33.2617 14.3264C33.997 13.8906 34.7198 13.4448 35.4302 12.9892Z" fill="#FAC1D9"/>
<path opacity="0.962" fill-rule="evenodd" clip-rule="evenodd" d="M7.16836 14.6523C11.0312 16.861 14.8861 19.0897 18.7332 21.3383C14.9505 23.5187 11.1678 25.6991 7.3852 27.8796C5.39666 24.0782 5.11958 20.151 6.55398 16.0979C6.73975 15.6062 6.94455 15.1243 7.16836 14.6523ZM8.32485 16.6762C9.37052 16.7217 9.69578 17.2276 9.30063 18.1941C8.92571 18.5823 8.50406 18.6425 8.03573 18.3748C7.70418 18.0692 7.59576 17.6958 7.71047 17.2544C7.86036 16.9959 8.06516 16.8031 8.32485 16.6762ZM9.98729 20.2179C11.1415 20.4209 11.5872 21.0955 11.3245 22.2418C10.5924 23.2921 9.7732 23.3643 8.86695 22.4586C8.39418 21.2839 8.76763 20.537 9.98729 20.2179ZM14.1073 20.2179C15.0692 20.4431 15.3101 20.9852 14.8301 21.8442C14.3305 22.205 13.8607 22.1688 13.4206 21.7358C13.0716 20.963 13.3004 20.457 14.1073 20.2179ZM7.0238 20.2902C7.63768 20.2479 7.68587 20.3805 7.16836 20.6877C6.95929 20.7708 6.74245 20.8069 6.51784 20.7962C6.50201 20.7112 6.5261 20.6389 6.59012 20.5793C6.73941 20.4812 6.88397 20.3849 7.0238 20.2902ZM9.11993 24.0488C9.72007 24.1029 9.76828 24.2836 9.26449 24.5909C8.81498 24.7969 8.34519 24.9294 7.85503 24.9884C7.33807 24.8982 7.32603 24.7416 7.81889 24.5186C8.26795 24.3812 8.70163 24.2245 9.11993 24.0488Z" fill="#FAC1D9"/>
<path opacity="0.961" fill-rule="evenodd" clip-rule="evenodd" d="M32.6117 14.6523C32.843 14.8956 33.0237 15.1848 33.1538 15.5197C34.6178 19.1728 34.6419 22.835 33.226 26.5063C33.0353 26.9842 32.8064 27.442 32.5394 27.8796C28.7567 25.6991 24.974 23.5187 21.1914 21.3383C25.0104 19.1195 28.8172 16.8909 32.6117 14.6523ZM32.0334 17.0376C32.6785 17.0691 32.6785 17.2016 32.0334 17.4351C31.8598 17.494 31.6912 17.4819 31.5275 17.399C31.6855 17.2601 31.8542 17.1396 32.0334 17.0376ZM31.0938 19.206C32.2432 19.1712 32.8094 19.7254 32.7924 20.8684C32.4709 21.8544 31.8083 22.2038 30.8047 21.9165C30.0605 21.4671 29.8316 20.8286 30.118 20.0011C30.3502 19.6113 30.6755 19.3463 31.0938 19.206ZM25.9619 20.3625C26.9007 20.3247 27.2741 20.7584 27.0822 21.6635C26.8181 22.1384 26.4205 22.295 25.8896 22.1333C25.3031 21.7916 25.1706 21.3218 25.4921 20.7239C25.6341 20.5757 25.7907 20.4552 25.9619 20.3625ZM28.6363 20.3625C28.7355 20.3511 28.8319 20.3632 28.9254 20.3986C28.6716 20.6117 28.3825 20.708 28.058 20.6877C28.2525 20.5717 28.4453 20.4633 28.6363 20.3625ZM28.7808 22.7477C29.2136 22.7836 29.2618 22.9403 28.9254 23.2175C28.6574 23.3716 28.3682 23.4318 28.058 23.3982C28.0503 23.2245 28.1226 23.0921 28.2749 23.0007C28.4348 22.8839 28.6035 22.7995 28.7808 22.7477ZM30.8047 23.9765C31.6536 24.1148 31.9548 24.5967 31.7082 25.4221C31.175 25.9996 30.645 25.9996 30.118 25.4221C29.8661 24.6975 30.0949 24.2156 30.8047 23.9765Z" fill="#FAC1D9"/>
<path opacity="0.959" fill-rule="evenodd" clip-rule="evenodd" d="M19.2386 22.3828C19.3828 26.6948 19.4311 31.0316 19.3831 35.3932C14.54 35.0931 10.7574 32.9609 8.03516 28.9964C8.09587 28.8687 8.19225 28.7723 8.32428 28.7073C11.9905 26.6338 15.6287 24.5256 19.2386 22.3828ZM16.8533 25.9245C17.6981 25.962 18.0475 26.3957 17.9014 27.2256C17.5581 27.8131 17.0883 27.9456 16.4919 27.6231C15.9237 26.9007 16.0442 26.3345 16.8533 25.9245ZM14.3235 28.2375C14.5329 28.2104 14.7256 28.2465 14.9018 28.3459C14.6592 28.7684 14.2978 28.937 13.8176 28.8519C13.7488 28.8 13.7368 28.7398 13.7814 28.6712C13.9342 28.4817 14.1149 28.3372 14.3235 28.2375ZM10.7095 28.3821C11.7516 28.3748 12.1009 28.8567 11.7576 29.8277C11.2516 30.4059 10.7457 30.4059 10.2397 29.8277C9.94126 29.193 10.0979 28.7112 10.7095 28.3821ZM14.974 29.4663C16.0418 29.558 16.5598 30.1362 16.5281 31.201C16.1316 32.2329 15.4209 32.534 14.3958 32.1045C13.694 31.5381 13.5615 30.8514 13.9983 30.0445C14.2799 29.7656 14.6052 29.5729 14.974 29.4663ZM17.5761 33.7308C17.7621 33.7053 17.9307 33.7415 18.0821 33.8392C17.7781 34.2102 17.4167 34.3186 16.9979 34.1645C17.1695 33.9833 17.3623 33.8387 17.5761 33.7308Z" fill="#FAC1D9"/>
<path opacity="0.962" fill-rule="evenodd" clip-rule="evenodd" d="M20.5391 22.3828C24.2214 24.4893 27.9077 26.5975 31.5979 28.7073C31.73 28.7723 31.8263 28.8687 31.887 28.9964C29.1648 32.9609 25.3822 35.0931 20.5391 35.3932C20.5391 31.0564 20.5391 26.7196 20.5391 22.3828ZM22.9966 26.4305C24.4572 26.4857 24.9752 27.2085 24.5506 28.5989C23.822 29.4028 23.051 29.451 22.2376 28.7435C21.6893 27.702 21.9423 26.931 22.9966 26.4305ZM28.2008 28.5266C28.8749 28.4774 29.2845 28.7786 29.4295 29.4301C29.25 30.2666 28.7681 30.5316 27.9839 30.2252C27.3572 29.5645 27.4295 28.9983 28.2008 28.5266ZM25.5264 30.9841C25.6024 30.9734 25.6747 30.9854 25.7432 31.0203C25.4305 31.2256 25.0931 31.3461 24.7313 31.3817C24.9836 31.2073 25.2486 31.0749 25.5264 30.9841ZM22.4906 31.4178C23.4467 31.4922 23.7719 31.9741 23.4664 32.8634C23.0917 33.3254 22.646 33.4097 22.1292 33.1164C21.561 32.394 21.6814 31.8278 22.4906 31.4178Z" fill="#FAC1D9"/>
<path opacity="0.961" fill-rule="evenodd" clip-rule="evenodd" d="M19.3837 38.6464C18.9982 38.6464 18.6127 38.6464 18.2272 38.6464C12.6112 37.948 8.25034 35.2495 5.14453 30.5511C5.84324 30.1295 6.54194 29.7078 7.24065 29.2862C7.31293 29.2379 7.38521 29.2379 7.45749 29.2862C10.3298 33.4459 14.3052 35.6986 19.3837 36.0443C19.3837 36.9117 19.3837 37.7791 19.3837 38.6464Z" fill="#FAC1D9"/>
<path opacity="0.961" fill-rule="evenodd" clip-rule="evenodd" d="M21.6955 38.6464C21.3101 38.6464 20.9245 38.6464 20.5391 38.6464C20.5391 37.7791 20.5391 36.9117 20.5391 36.0443C25.6176 35.6986 29.593 33.4459 32.4653 29.2862C32.5376 29.2379 32.6098 29.2379 32.6821 29.2862C33.3809 29.7078 34.0795 30.1295 34.7782 30.5511C31.6724 35.2495 27.3116 37.948 21.6955 38.6464Z" fill="#FAC1D9"/>
</svg>
