<svg width="40" height="41" viewBox="0 0 40 41" fill="none" xmlns="http://www.w3.org/2000/svg">
<path d="M18.3245 7.98359V14.4503C18.3245 14.9857 18.2188 15.5159 18.0134 16.0104C17.808 16.5048 17.5069 16.9539 17.1275 17.3317C16.7481 17.7096 16.2979 18.0088 15.8026 18.2122C15.3072 18.4156 14.7766 18.5191 14.2412 18.5169H7.80786C7.27386 18.5202 6.74471 18.4156 6.25212 18.2094C5.75953 18.0032 5.31364 17.6996 4.94119 17.3169C4.5638 16.9414 4.26485 16.4945 4.0617 16.0024C3.85855 15.5103 3.75527 14.9827 3.75786 14.4503V8.00026C3.75785 6.9246 4.18401 5.89274 4.94306 5.13057C5.70211 4.3684 6.7322 3.938 7.80786 3.93359H14.2579C14.7913 3.93411 15.3193 4.04043 15.8114 4.24641C16.3035 4.4524 16.7498 4.75394 17.1245 5.13359C17.5044 5.50467 17.8063 5.94796 18.0124 6.4374C18.2185 6.92683 18.3246 7.45254 18.3245 7.98359ZM36.2412 8.00026V14.4503C36.2325 15.5233 35.8036 16.5501 35.0464 17.3104C34.2892 18.0707 33.2641 18.5039 32.1912 18.5169H25.7245C24.6465 18.5103 23.613 18.0862 22.8412 17.3336C22.464 16.9544 22.1654 16.5046 21.9623 16.0098C21.7593 15.515 21.6558 14.9851 21.6579 14.4503V8.00026C21.6556 7.4664 21.7606 6.93753 21.9668 6.44507C22.1729 5.95262 22.4759 5.50662 22.8579 5.13359C23.2326 4.75394 23.6789 4.4524 24.171 4.24641C24.663 4.04043 25.1911 3.93411 25.7245 3.93359H32.1745C33.2504 3.94231 34.2797 4.37355 35.0405 5.13432C35.8012 5.89509 36.2325 6.92441 36.2412 8.00026ZM36.2412 25.9169V32.3669C36.2325 33.4399 35.8036 34.4668 35.0464 35.2271C34.2892 35.9874 33.2641 36.4205 32.1912 36.4336H25.7245C24.6397 36.4446 23.5933 36.032 22.8079 35.2836C22.4292 34.9055 22.1296 34.4559 21.9264 33.9609C21.7233 33.4658 21.6206 32.9353 21.6245 32.4003V25.9503C21.6223 25.4164 21.7274 24.8876 21.9336 24.3951C22.1397 23.9027 22.4427 23.4567 22.8245 23.0836C23.1993 22.704 23.6456 22.4025 24.1377 22.1965C24.6298 21.9906 25.1578 21.8842 25.6912 21.8836H32.1412C33.217 21.8923 34.2464 22.3236 35.0071 23.0843C35.7679 23.8451 36.1991 24.8744 36.2079 25.9503L36.2412 25.9169ZM18.3245 25.9336V32.3836C18.3114 33.4594 17.8759 34.487 17.1121 35.2446C16.3482 36.0023 15.3171 36.4293 14.2412 36.4336H7.80786C7.27539 36.4358 6.74775 36.3326 6.25539 36.1298C5.76302 35.9271 5.31568 35.6288 4.93916 35.2523C4.56264 34.8758 4.26441 34.4284 4.06166 33.9361C3.85891 33.4437 3.75566 32.9161 3.75786 32.3836V25.9336C3.76215 24.8577 4.18918 23.8266 4.94683 23.0627C5.70448 22.2988 6.73204 21.8634 7.80786 21.8503H14.2579C15.3386 21.8596 16.373 22.2901 17.1412 23.0503C17.9013 23.8171 18.3268 24.8538 18.3245 25.9336Z" fill="#333333"/>
</svg>
