<svg width="15" height="16" viewBox="0 0 15 16" fill="none" xmlns="http://www.w3.org/2000/svg">
<path d="M9.81106 14.036C9.81119 14.4503 9.65458 14.8493 9.37263 15.1531C9.09067 15.4569 8.70421 15.6429 8.29071 15.674L8.16744 15.6781H6.52381C6.10915 15.6782 5.70975 15.5218 5.4057 15.2401C5.10164 14.9584 4.9154 14.5723 4.8843 14.1592L4.88019 14.036H9.81106ZM7.34562 0.078125C8.8372 0.0781004 10.2705 0.656879 11.3431 1.69237C12.4157 2.72787 13.0439 4.13912 13.095 5.62844L13.0983 5.82549V8.91593L14.5957 11.9078C14.661 12.0384 14.6937 12.1828 14.691 12.3287C14.6882 12.4747 14.6501 12.6178 14.5799 12.7458C14.5097 12.8738 14.4095 12.9829 14.2879 13.0637C14.1662 13.1446 14.0268 13.1948 13.8815 13.21L13.787 13.215H0.904261C0.758113 13.215 0.614133 13.1796 0.48466 13.1119C0.355187 13.0442 0.244081 12.9461 0.160863 12.8261C0.0776451 12.706 0.0247961 12.5676 0.00684517 12.4227C-0.0111058 12.2778 0.00637659 12.1307 0.057794 11.9941L0.0955974 11.9078L1.59294 8.91593V5.82549C1.59294 4.30119 2.19902 2.83933 3.27786 1.76149C4.3567 0.683649 5.81992 0.078125 7.34562 0.078125Z" fill="white"/>
</svg>
