<svg width="33" height="24" viewBox="0 0 33 24" fill="none" xmlns="http://www.w3.org/2000/svg">
<g clip-path="url(#clip0_230_4290)">
<g clip-path="url(#clip1_230_4290)">
<g clip-path="url(#clip2_230_4290)">
<g clip-path="url(#clip3_230_4290)">
<path fill-rule="evenodd" clip-rule="evenodd" d="M8.22329 18.1863H15.4766L18.7833 5.81299H8.22329C4.80995 5.81299 2.03662 8.58632 2.03662 11.9997C2.03662 15.413 4.80995 18.1863 8.22329 18.1863Z" fill="white"/>
<path fill-rule="evenodd" clip-rule="evenodd" d="M24.4367 4.5332H8.22335C4.06335 4.5332 0.756683 7.83987 0.756683 11.9999C0.756683 16.1599 4.06335 19.4665 8.22335 19.4665H24.4367C28.5967 19.4665 31.9034 16.1599 31.9034 11.9999C31.9034 7.83987 28.49 4.5332 24.4367 4.5332ZM2.03668 11.9999C2.03668 8.58654 4.81002 5.8132 8.22335 5.8132H18.7834L15.4767 18.1865H8.22335C4.81002 18.1865 2.03668 15.4132 2.03668 11.9999Z" fill="#0066FF"/>
<path d="M26.57 8.79965C26.7833 9.01298 26.7833 9.43965 26.57 9.65298L24.33 11.9996L26.6767 14.3463C26.89 14.5596 26.89 14.9863 26.6767 15.1996C26.4633 15.413 26.0367 15.413 25.8233 15.1996L23.4767 12.853L21.13 15.1996C20.9167 15.413 20.49 15.413 20.2767 15.1996C20.0633 14.9863 20.0633 14.5596 20.2767 14.3463L22.5167 11.9996L20.17 9.65298C19.9567 9.43965 19.9567 9.01298 20.17 8.79965C20.3833 8.58632 20.81 8.58632 21.0233 8.79965L23.37 11.1463L25.7167 8.79965C25.93 8.58632 26.3567 8.58632 26.57 8.79965Z" fill="white"/>
<path d="M13.8767 8.90658C14.09 9.11992 14.1967 9.54658 13.9834 9.75992L9.50336 14.9866C9.39669 15.0932 9.29002 15.1999 9.18336 15.1999C8.97002 15.3066 8.65002 15.3066 8.43669 15.0932L6.09002 12.7466C5.87669 12.5332 5.87669 12.1066 6.09002 11.8932C6.30336 11.6799 6.73002 11.6799 6.94336 11.8932L8.86336 13.7066L12.9167 8.90658C13.13 8.69325 13.5567 8.69325 13.8767 8.90658Z" fill="#0066FF"/>
</g>
</g>
</g>
</g>
<defs>
<clipPath id="clip0_230_4290">
<rect width="32" height="24" fill="white" transform="translate(0.329987)"/>
</clipPath>
<clipPath id="clip1_230_4290">
<rect width="32" height="24" fill="white" transform="translate(0.329987)"/>
</clipPath>
<clipPath id="clip2_230_4290">
<rect width="32" height="24" fill="white" transform="translate(0.329987)"/>
</clipPath>
<clipPath id="clip3_230_4290">
<rect width="32" height="14.9333" fill="white" transform="translate(0.329987 4.5332)"/>
</clipPath>
</defs>
</svg>
