<svg width="162" height="24" viewBox="0 0 162 24" fill="none" xmlns="http://www.w3.org/2000/svg">
<path d="M150.75 2.86H147.41V18.12H150.75V7.21C151.205 6.55451 151.812 6.01915 152.519 5.6499C153.226 5.28064 154.012 5.08851 154.81 5.09C157.11 5.09 158.66 6.5 158.66 8.79V18.12H162V8.14C162 4.89 159.65 2.6 156.04 2.6C153.8 2.6 151.94 3.53 150.74 5.12V2.86H150.75ZM137.42 4.95C139.78 4.95 141.41 6.34 141.92 8.82H133.02C133.5 6.36 135.14 4.95 137.42 4.95ZM137.48 18.43C141.18 18.43 143.9 16.47 144.89 13.23H141.61C141.31 14.0701 140.752 14.7937 140.015 15.2967C139.279 15.7998 138.402 16.0565 137.51 16.03C134.85 16.03 133.04 14.19 132.87 11.05H145.31V10.43C145.31 5.4 141.87 2.58 137.48 2.58C132.88 2.58 129.51 5.63 129.51 10.51C129.51 15.35 132.83 18.43 137.48 18.43ZM119.62 4.95C121.97 4.95 123.61 6.34 124.12 8.82H115.22C115.69 6.36 117.32 4.95 119.62 4.95ZM119.68 18.43C123.38 18.43 126.1 16.47 127.08 13.23H123.81C123.508 14.0684 122.949 14.7902 122.213 15.2929C121.477 15.7955 120.601 16.0534 119.71 16.03C117.05 16.03 115.24 14.19 115.07 11.05H127.51V10.43C127.51 5.4 124.07 2.58 119.68 2.58C115.08 2.58 111.71 5.63 111.71 10.51C111.71 15.35 115.01 18.43 119.68 18.43ZM105.99 2.86H102.65V18.12H106V7.69C107 5.96 109.1 5.29 111.2 5.63V2.58C108.85 2.46 107.1 3.48 106 5.4V2.86H105.99ZM92.15 13.39C89.61 13.39 87.75 11.92 87.75 9.27C87.75 6.53 89.58 5.02 92.15 5.02C94.73 5.02 96.56 6.52 96.56 9.27C96.56 11.92 94.69 13.39 92.16 13.39H92.15ZM88.05 18.12H84.85C85.64 21.79 88.75 23.52 92.95 23.52C97.13 23.52 99.93 21.6 99.93 18.68C99.93 16.39 98.26 15.35 95.72 14.64C96.9241 14.3405 97.987 13.6325 98.7274 12.6368C99.4678 11.6411 99.8398 10.4194 99.78 9.18C99.78 7.71 99.28 6.41 98.4 5.36C99.1382 5.18793 99.9037 5.16752 100.65 5.3V2.48C99.9475 2.42578 99.2421 2.5358 98.5895 2.80135C97.9369 3.06691 97.355 3.48071 96.89 4.01C95.4699 3.09072 93.8116 2.60749 92.12 2.62C87.68 2.62 84.51 5.34 84.51 9.18C84.51 14.24 88.75 15.43 92.82 16.37C96.02 17.1 96.69 17.84 96.69 18.91C96.69 20.11 95.76 21.14 92.87 21.14C90.4 21.14 88.7 20.24 88.05 18.12ZM78.78 13.82V5.34H83.59V2.86H78.79V0H75.48V2.86H71.6V5.35H75.47V14.43C75.47 16.97 76.82 18.25 80.22 18.25C81.24 18.25 82.32 18.13 83.58 17.8V15.37C82.48 15.65 81.63 15.73 80.95 15.73C79.05 15.73 78.77 15.03 78.77 13.82H78.78ZM63.37 4.95C65.72 4.95 67.35 6.34 67.86 8.82H58.96C59.44 6.36 61.09 4.95 63.36 4.95H63.37ZM63.43 18.43C67.13 18.43 69.85 16.47 70.83 13.23H67.55C67.2516 14.071 66.6936 14.7954 65.9567 15.2987C65.2197 15.802 64.3419 16.0581 63.45 16.03C60.79 16.03 58.98 14.19 58.82 11.05H71.26V10.43C71.26 5.4 67.81 2.58 63.43 2.58C58.82 2.58 55.45 5.63 55.45 10.51C55.45 15.35 58.77 18.43 63.43 18.43ZM45.57 4.95C47.92 4.95 49.55 6.34 50.06 8.82H41.16C41.64 6.36 43.27 4.95 45.56 4.95H45.57ZM45.62 18.43C49.32 18.43 52.04 16.47 53.03 13.23H49.75C49.4489 14.0693 48.8903 14.7919 48.154 15.2948C47.4177 15.7977 46.5413 16.055 45.65 16.03C42.99 16.03 41.18 14.19 41.01 11.05H53.46V10.43C53.46 5.4 50.01 2.58 45.62 2.58C41.02 2.58 37.65 5.63 37.65 10.51C37.65 15.35 40.95 18.43 45.62 18.43ZM29.46 18.12H32.84L37.11 2.86H34.03L31.11 14.16L27.81 2.86H24.87L21.62 13.99L18.74 2.86H15.46L19.76 18.12H23.14L26.28 7.09L29.46 18.12ZM7.89 18.42C11.94 18.42 14.76 16.45 14.76 13.65C14.76 7.61 3.45 10.23 3.45 6.78C3.45 5.66 4.63 4.87 6.87 4.87C9.3 4.87 10.85 5.83 11.44 7.93H14.58C13.88 4.47 11.08 2.54 6.9 2.54C2.78 2.54 0.24 4.37 0.24 7.14C0.24 13.03 11.54 10.31 11.54 13.99C11.54 15.19 10.42 16.11 7.88 16.11C5.34 16.11 3.73 15.01 3.18 12.72H0C0.7 16.53 3.62 18.42 7.89 18.42Z" fill="#00473C"/>
</svg>
