<svg width="33" height="25" viewBox="0 0 33 25" fill="none" xmlns="http://www.w3.org/2000/svg">
<g clip-path="url(#clip0_94_328)">
<g clip-path="url(#clip1_94_328)">
<g clip-path="url(#clip2_94_328)">
<path fill-rule="evenodd" clip-rule="evenodd" d="M8.49331 18.8367H15.7466L19.0533 6.46338H8.49331C5.07997 6.46338 2.30664 9.23671 2.30664 12.65C2.30664 16.0634 5.07997 18.8367 8.49331 18.8367Z" fill="white"/>
<path fill-rule="evenodd" clip-rule="evenodd" d="M24.7067 5.18359H8.4934C4.3334 5.18359 1.02673 8.49026 1.02673 12.6503C1.02673 16.8103 4.3334 20.1169 8.4934 20.1169H24.7067C28.8667 20.1169 32.1734 16.8103 32.1734 12.6503C32.1734 8.49026 28.7601 5.18359 24.7067 5.18359ZM2.30673 12.6503C2.30673 9.23693 5.08007 6.46359 8.4934 6.46359H19.0534L15.7467 18.8369H8.4934C5.08007 18.8369 2.30673 16.0636 2.30673 12.6503Z" fill="#0066FF"/>
<path d="M26.84 9.45004C27.0534 9.66337 27.0534 10.09 26.84 10.3034L24.6 12.65L26.9467 14.9967C27.16 15.21 27.16 15.6367 26.9467 15.85C26.7334 16.0634 26.3067 16.0634 26.0934 15.85L23.7467 13.5034L21.4 15.85C21.1867 16.0634 20.76 16.0634 20.5467 15.85C20.3334 15.6367 20.3334 15.21 20.5467 14.9967L22.7867 12.65L20.44 10.3034C20.2267 10.09 20.2267 9.66337 20.44 9.45004C20.6534 9.23671 21.08 9.23671 21.2934 9.45004L23.64 11.7967L25.9867 9.45004C26.2 9.23671 26.6267 9.23671 26.84 9.45004Z" fill="white"/>
<path d="M14.1467 9.55697C14.3601 9.77031 14.4667 10.197 14.2534 10.4103L9.77341 15.637C9.66674 15.7436 9.56007 15.8503 9.45341 15.8503C9.24007 15.957 8.92007 15.957 8.70674 15.7436L6.36007 13.397C6.14674 13.1836 6.14674 12.757 6.36007 12.5436C6.57341 12.3303 7.00007 12.3303 7.21341 12.5436L9.13341 14.357L13.1867 9.55697C13.4001 9.34364 13.8267 9.34364 14.1467 9.55697Z" fill="#0066FF"/>
</g>
</g>
</g>
<defs>
<clipPath id="clip0_94_328">
<rect width="32" height="24" fill="white" transform="translate(0.600098 0.650391)"/>
</clipPath>
<clipPath id="clip1_94_328">
<rect width="32" height="24" fill="white" transform="translate(0.600098 0.650391)"/>
</clipPath>
<clipPath id="clip2_94_328">
<rect width="32" height="14.9333" fill="white" transform="translate(0.600098 5.18359)"/>
</clipPath>
</defs>
</svg>
